<svg width="319" height="72" viewBox="0 0 319 72" fill="none" xmlns="http://www.w3.org/2000/svg">
<g filter="url(#filter0_d_33_12101)">
<rect x="12" y="8" width="295" height="48" rx="24" fill="#219653"/>
<path d="M44 40V30" stroke="white" stroke-linecap="round" stroke-linejoin="round"/>
<path d="M38 40V24" stroke="white" stroke-linecap="round" stroke-linejoin="round"/>
<path d="M32 40V34" stroke="white" stroke-linecap="round" stroke-linejoin="round"/>
<path d="M74.5338 26.012V37.5H76.0378V27.628H82.1018V37.5H83.6058V26.012H74.5338ZM93.8789 33.516C93.8789 32.924 93.7669 32.364 93.5429 31.852C93.3189 31.34 93.0309 30.892 92.6629 30.524C92.2949 30.156 91.8629 29.868 91.3829 29.66C90.9029 29.452 90.3909 29.34 89.8469 29.34C89.3029 29.34 88.7909 29.452 88.2949 29.66C87.7989 29.868 87.3669 30.156 86.9989 30.524C86.6309 30.892 86.3429 31.34 86.1349 31.852C85.9269 32.364 85.8149 32.924 85.8149 33.516C85.8149 34.108 85.9269 34.668 86.1349 35.18C86.3429 35.692 86.6309 36.14 86.9989 36.508C87.3669 36.876 87.7989 37.164 88.2949 37.372C88.7909 37.58 89.3029 37.692 89.8469 37.692C90.3909 37.692 90.9029 37.596 91.3829 37.388C91.8629 37.18 92.2949 36.892 92.6629 36.524C93.0309 36.156 93.3189 35.708 93.5429 35.196C93.7669 34.684 93.8789 34.124 93.8789 33.532V33.516ZM87.2709 33.532C87.2709 33.148 87.3349 32.796 87.4629 32.476C87.5909 32.156 87.7669 31.884 88.0069 31.644C88.2469 31.404 88.5189 31.228 88.8229 31.1C89.1269 30.972 89.4629 30.908 89.8309 30.908C90.1989 30.908 90.5349 30.972 90.8549 31.1C91.1749 31.228 91.4469 31.404 91.6869 31.644C91.9269 31.884 92.1029 32.172 92.2309 32.492C92.3589 32.812 92.4229 33.18 92.4229 33.58C92.4229 33.98 92.3589 34.332 92.2309 34.652C92.1029 34.972 91.9269 35.244 91.6869 35.468C91.4469 35.692 91.1749 35.868 90.8549 35.996C90.5349 36.124 90.1989 36.188 89.8309 36.188C89.4629 36.188 89.1269 36.124 88.8229 35.996C88.5189 35.868 88.2469 35.692 88.0069 35.468C87.7669 35.244 87.5909 34.972 87.4629 34.652C87.3349 34.332 87.2709 33.98 87.2709 33.58V33.532ZM95.9526 29.516V37.5H97.4086V33.98L101.153 37.5H103.313L98.8966 33.372L102.929 29.516H100.945L97.4086 32.876V29.516H95.9526ZM103.631 36.14L103.887 37.5C104.015 37.548 104.175 37.564 104.383 37.564C105.295 37.564 105.999 37.068 106.495 36.06C106.991 35.052 107.279 33.516 107.359 31.452L107.375 31.068H110.111V37.5H111.567V29.516H105.999L105.983 30.028C105.935 31.324 105.855 32.364 105.743 33.148C105.631 33.932 105.471 34.54 105.279 34.972C105.087 35.404 104.847 35.708 104.575 35.868C104.303 36.028 103.983 36.124 103.631 36.172V36.14ZM115.627 29.516H114.171V37.5H115.627L119.883 31.916V37.5H121.339V29.516H119.883L115.627 35.1V29.516ZM123.968 29.516V37.5H125.424V33.98L129.168 37.5H131.328L126.912 33.372L130.944 29.516H128.96L125.424 32.876V29.516H123.968ZM137.503 34.668V35.276C137.439 35.404 137.343 35.516 137.199 35.628C137.055 35.74 136.895 35.836 136.719 35.916C136.543 35.996 136.351 36.06 136.143 36.108C135.935 36.156 135.727 36.172 135.519 36.172C134.895 36.172 134.415 36.076 134.095 35.884C133.775 35.692 133.615 35.436 133.615 35.116C133.615 34.78 133.775 34.524 134.111 34.332C134.447 34.14 134.911 34.044 135.519 34.044C135.951 34.044 136.367 34.108 136.751 34.22C137.135 34.332 137.391 34.508 137.519 34.732L137.503 34.668ZM132.575 30.78L132.991 32.044C133.231 31.708 133.567 31.436 133.983 31.228C134.399 31.02 134.863 30.924 135.375 30.924C135.663 30.924 135.935 30.956 136.191 31.036C136.447 31.116 136.671 31.228 136.863 31.388C137.055 31.548 137.215 31.74 137.327 31.98C137.439 32.22 137.503 32.508 137.503 32.844V33.228C137.375 33.116 137.231 33.02 137.055 32.94C136.879 32.86 136.687 32.796 136.495 32.748C136.303 32.7 136.095 32.668 135.887 32.636C135.679 32.604 135.487 32.588 135.311 32.588C134.863 32.588 134.447 32.652 134.063 32.764C133.679 32.876 133.343 33.052 133.055 33.276C132.767 33.5 132.543 33.772 132.383 34.092C132.223 34.412 132.143 34.78 132.143 35.196C132.143 36.012 132.431 36.652 133.007 37.1C133.583 37.548 134.335 37.772 135.279 37.772C135.503 37.772 135.727 37.756 135.951 37.708C136.175 37.66 136.383 37.596 136.591 37.516C136.799 37.436 136.991 37.34 137.167 37.228C137.343 37.116 137.471 36.988 137.567 36.844V37.548H138.975V32.508C138.975 31.516 138.671 30.748 138.063 30.204C137.455 29.66 136.623 29.388 135.551 29.388C134.911 29.388 134.335 29.516 133.807 29.772C133.279 30.028 132.863 30.364 132.559 30.78H132.575ZM147.516 31.068V29.516H140.748V31.068H143.404V37.5H144.86V31.068H147.516ZM149.39 37.5H152.462C152.878 37.5 153.278 37.436 153.646 37.308C154.014 37.18 154.334 36.988 154.606 36.732C154.878 36.476 155.086 36.188 155.246 35.852C155.406 35.516 155.486 35.132 155.486 34.716C155.486 34.316 155.406 33.948 155.246 33.612C155.086 33.276 154.878 32.988 154.606 32.732C154.334 32.476 154.014 32.284 153.646 32.14C153.278 31.996 152.878 31.932 152.446 31.932H150.814V29.548H149.358L149.39 37.5ZM152.638 35.98H150.814V33.484H152.638C153.006 33.484 153.326 33.596 153.582 33.82C153.838 34.044 153.966 34.348 153.966 34.716C153.966 35.084 153.838 35.388 153.598 35.628C153.358 35.868 153.038 35.996 152.638 35.996V35.98ZM161.795 35.948H161.011V39.628H162.403V37.5H168.659V39.628H170.051V35.948H168.723V29.516H163.427V30.028C163.427 30.748 163.379 31.404 163.283 31.996C163.187 32.588 163.059 33.132 162.899 33.612C162.739 34.092 162.563 34.524 162.371 34.908C162.179 35.292 161.987 35.628 161.795 35.916V35.948ZM167.267 35.916H163.411C163.523 35.724 163.651 35.468 163.795 35.148C163.939 34.828 164.083 34.46 164.211 34.044C164.339 33.628 164.451 33.164 164.547 32.652C164.643 32.14 164.707 31.596 164.739 31.02H167.235L167.267 35.916ZM175.648 36.14C174.88 36.14 174.256 35.964 173.76 35.612C173.264 35.26 172.976 34.732 172.896 34.028H179.008C179.04 33.836 179.056 33.66 179.056 33.484C179.056 32.924 178.976 32.396 178.8 31.884C178.624 31.372 178.368 30.924 178.048 30.54C177.728 30.156 177.328 29.852 176.864 29.628C176.4 29.404 175.888 29.292 175.312 29.292C174.704 29.292 174.16 29.404 173.68 29.628C173.2 29.852 172.784 30.156 172.448 30.54C172.112 30.924 171.856 31.372 171.68 31.884C171.504 32.396 171.408 32.924 171.408 33.484C171.408 34.124 171.504 34.7 171.712 35.212C171.92 35.724 172.208 36.156 172.576 36.508C172.944 36.86 173.376 37.132 173.888 37.324C174.4 37.516 174.944 37.612 175.536 37.612C175.904 37.612 176.256 37.564 176.576 37.484C176.896 37.404 177.184 37.292 177.44 37.148C177.696 37.004 177.904 36.844 178.08 36.668C178.256 36.492 178.384 36.316 178.464 36.14L178.08 35.004C177.968 35.132 177.824 35.26 177.648 35.388C177.472 35.516 177.28 35.628 177.056 35.724C176.832 35.82 176.592 35.9 176.352 35.964C176.112 36.028 175.856 36.06 175.6 36.06L175.648 36.14ZM177.472 32.492H172.96C172.992 32.252 173.072 32.028 173.216 31.82C173.36 31.612 173.536 31.436 173.744 31.292C173.952 31.148 174.192 31.036 174.464 30.956C174.736 30.876 175.008 30.828 175.296 30.828C175.584 30.828 175.856 30.876 176.112 30.956C176.368 31.036 176.592 31.164 176.784 31.324C176.976 31.484 177.136 31.66 177.248 31.868C177.36 32.076 177.424 32.3 177.44 32.54L177.472 32.492ZM188.404 29.516L185.924 35.388L183.444 29.516H181.972L180.724 37.5H182.212L183.092 32.188L185.268 37.5H186.612L188.836 32.22L189.716 37.5H191.156L189.908 29.516H188.404ZM200.863 33.516C200.863 32.924 200.751 32.364 200.527 31.852C200.303 31.34 200.015 30.892 199.647 30.524C199.279 30.156 198.847 29.868 198.367 29.66C197.887 29.452 197.375 29.34 196.831 29.34C196.287 29.34 195.775 29.452 195.279 29.66C194.783 29.868 194.351 30.156 193.983 30.524C193.615 30.892 193.327 31.34 193.119 31.852C192.911 32.364 192.799 32.924 192.799 33.516C192.799 34.108 192.911 34.668 193.119 35.18C193.327 35.692 193.615 36.14 193.983 36.508C194.351 36.876 194.783 37.164 195.279 37.372C195.775 37.58 196.287 37.692 196.831 37.692C197.375 37.692 197.887 37.596 198.367 37.388C198.847 37.18 199.279 36.892 199.647 36.524C200.015 36.156 200.303 35.708 200.527 35.196C200.751 34.684 200.863 34.124 200.863 33.532V33.516ZM194.255 33.532C194.255 33.148 194.319 32.796 194.447 32.476C194.575 32.156 194.751 31.884 194.991 31.644C195.231 31.404 195.503 31.228 195.807 31.1C196.111 30.972 196.447 30.908 196.815 30.908C197.183 30.908 197.519 30.972 197.839 31.1C198.159 31.228 198.431 31.404 198.671 31.644C198.911 31.884 199.087 32.172 199.215 32.492C199.343 32.812 199.407 33.18 199.407 33.58C199.407 33.98 199.343 34.332 199.215 34.652C199.087 34.972 198.911 35.244 198.671 35.468C198.431 35.692 198.159 35.868 197.839 35.996C197.519 36.124 197.183 36.188 196.815 36.188C196.447 36.188 196.111 36.124 195.807 35.996C195.503 35.868 195.231 35.692 194.991 35.468C194.751 35.244 194.575 34.972 194.447 34.652C194.319 34.332 194.255 33.98 194.255 33.58V33.532ZM207.881 32.412H202.825V33.804H207.881V32.412ZM213.43 29.516H210.39V37.5H213.734C214.118 37.5 214.47 37.452 214.806 37.34C215.142 37.228 215.43 37.068 215.67 36.86C215.91 36.652 216.102 36.412 216.246 36.124C216.39 35.836 216.454 35.532 216.454 35.196C216.454 34.284 216.086 33.66 215.366 33.308C215.638 33.1 215.814 32.86 215.91 32.588C216.006 32.316 216.054 32.012 216.054 31.676C216.054 31.004 215.798 30.476 215.302 30.092C214.806 29.708 214.166 29.516 213.382 29.516H213.43ZM213.974 35.98H211.798V34.236H213.974C214.246 34.236 214.47 34.316 214.662 34.46C214.854 34.604 214.95 34.812 214.95 35.084C214.95 35.356 214.854 35.58 214.678 35.74C214.502 35.9 214.262 35.98 213.974 35.98ZM213.654 32.732H211.798V31.036H213.654C213.894 31.036 214.102 31.116 214.278 31.26C214.454 31.404 214.55 31.628 214.55 31.916C214.55 32.156 214.47 32.364 214.294 32.524C214.118 32.684 213.894 32.764 213.622 32.764L213.654 32.732ZM222.273 36.14C221.505 36.14 220.881 35.964 220.385 35.612C219.889 35.26 219.601 34.732 219.521 34.028H225.633C225.665 33.836 225.681 33.66 225.681 33.484C225.681 32.924 225.601 32.396 225.425 31.884C225.249 31.372 224.993 30.924 224.673 30.54C224.353 30.156 223.953 29.852 223.489 29.628C223.025 29.404 222.513 29.292 221.937 29.292C221.329 29.292 220.785 29.404 220.305 29.628C219.825 29.852 219.409 30.156 219.073 30.54C218.737 30.924 218.481 31.372 218.305 31.884C218.129 32.396 218.033 32.924 218.033 33.484C218.033 34.124 218.129 34.7 218.337 35.212C218.545 35.724 218.833 36.156 219.201 36.508C219.569 36.86 220.001 37.132 220.513 37.324C221.025 37.516 221.569 37.612 222.161 37.612C222.529 37.612 222.881 37.564 223.201 37.484C223.521 37.404 223.809 37.292 224.065 37.148C224.321 37.004 224.529 36.844 224.705 36.668C224.881 36.492 225.009 36.316 225.089 36.14L224.705 35.004C224.593 35.132 224.449 35.26 224.273 35.388C224.097 35.516 223.905 35.628 223.681 35.724C223.457 35.82 223.217 35.9 222.977 35.964C222.737 36.028 222.481 36.06 222.225 36.06L222.273 36.14ZM224.097 32.492H219.585C219.617 32.252 219.697 32.028 219.841 31.82C219.985 31.612 220.161 31.436 220.369 31.292C220.577 31.148 220.817 31.036 221.089 30.956C221.361 30.876 221.633 30.828 221.921 30.828C222.209 30.828 222.481 30.876 222.737 30.956C222.993 31.036 223.217 31.164 223.409 31.324C223.601 31.484 223.761 31.66 223.873 31.868C223.985 32.076 224.049 32.3 224.065 32.54L224.097 32.492ZM235.749 33.516C235.749 32.892 235.637 32.332 235.413 31.82C235.189 31.308 234.885 30.86 234.517 30.492C234.149 30.124 233.717 29.836 233.221 29.628C232.725 29.42 232.197 29.324 231.637 29.324C231.029 29.324 230.501 29.42 230.053 29.612C229.605 29.804 229.317 30.06 229.189 30.364V29.516H227.781V40.908H229.237V36.636C229.365 36.94 229.653 37.196 230.085 37.404C230.517 37.612 231.045 37.708 231.653 37.708C232.197 37.708 232.709 37.612 233.205 37.404C233.701 37.196 234.133 36.908 234.501 36.54C234.869 36.172 235.173 35.74 235.397 35.228C235.621 34.716 235.733 34.156 235.733 33.532L235.749 33.516ZM234.277 33.5C234.277 34.316 234.037 34.956 233.541 35.436C233.045 35.916 232.389 36.156 231.573 36.156C231.013 36.156 230.517 36.028 230.069 35.772C229.621 35.516 229.333 35.196 229.189 34.812V32.204C229.333 31.82 229.621 31.5 230.069 31.244C230.517 30.988 231.013 30.86 231.573 30.86C232.389 30.86 233.045 31.1 233.541 31.564C234.037 32.028 234.277 32.668 234.277 33.468V33.5ZM244.388 36.3L243.988 35.164C243.764 35.42 243.444 35.644 243.044 35.836C242.644 36.028 242.196 36.124 241.7 36.124C241.252 36.124 240.852 36.06 240.484 35.932C240.116 35.804 239.812 35.628 239.556 35.404C239.3 35.18 239.092 34.908 238.948 34.588C238.804 34.268 238.724 33.916 238.724 33.516C238.724 32.716 238.996 32.076 239.54 31.596C240.084 31.116 240.804 30.876 241.7 30.876C242.164 30.876 242.596 30.972 242.996 31.164C243.396 31.356 243.716 31.58 243.94 31.836L244.324 30.684C244.244 30.508 244.116 30.348 243.94 30.188C243.764 30.028 243.556 29.884 243.3 29.756C243.044 29.628 242.756 29.532 242.436 29.452C242.116 29.372 241.78 29.34 241.412 29.34C240.868 29.34 240.34 29.436 239.844 29.644C239.348 29.852 238.9 30.14 238.516 30.508C238.132 30.876 237.828 31.324 237.604 31.836C237.38 32.348 237.268 32.924 237.268 33.548C237.268 34.172 237.38 34.748 237.604 35.26C237.828 35.772 238.132 36.22 238.516 36.588C238.9 36.956 239.332 37.244 239.828 37.452C240.324 37.66 240.852 37.756 241.396 37.756C241.764 37.756 242.116 37.724 242.436 37.644C242.756 37.564 243.044 37.468 243.3 37.34C243.556 37.212 243.764 37.068 243.94 36.908C244.116 36.748 244.244 36.572 244.324 36.396L244.388 36.3ZM247.924 29.516H246.468V37.5H247.924L252.18 31.916V37.5H253.636V29.516H252.18L247.924 35.1V29.516ZM267.145 33.516C267.145 32.924 267.033 32.364 266.809 31.852C266.585 31.34 266.297 30.892 265.929 30.524C265.561 30.156 265.129 29.868 264.649 29.66C264.169 29.452 263.657 29.34 263.113 29.34C262.649 29.34 262.201 29.42 261.769 29.58C261.337 29.74 260.937 29.964 260.585 30.252C260.233 30.54 259.929 30.892 259.689 31.292C259.449 31.692 259.273 32.14 259.177 32.62H257.721V29.532H256.265V37.516H257.721V34.172H259.129C259.209 34.7 259.369 35.18 259.609 35.612C259.849 36.044 260.137 36.412 260.489 36.732C260.841 37.052 261.241 37.292 261.689 37.468C262.137 37.644 262.617 37.724 263.113 37.724C263.657 37.724 264.169 37.628 264.649 37.42C265.129 37.212 265.561 36.924 265.929 36.556C266.297 36.188 266.585 35.74 266.809 35.228C267.033 34.716 267.145 34.156 267.145 33.564V33.516ZM260.537 33.564C260.537 33.18 260.601 32.828 260.729 32.508C260.857 32.188 261.033 31.916 261.273 31.676C261.513 31.436 261.785 31.26 262.089 31.132C262.393 31.004 262.729 30.94 263.097 30.94C263.465 30.94 263.801 31.004 264.121 31.132C264.441 31.26 264.713 31.436 264.953 31.676C265.193 31.916 265.369 32.204 265.497 32.524C265.625 32.844 265.689 33.212 265.689 33.612C265.689 34.012 265.625 34.364 265.497 34.684C265.369 35.004 265.193 35.276 264.953 35.5C264.713 35.724 264.441 35.9 264.121 36.028C263.801 36.156 263.465 36.22 263.097 36.22C262.729 36.22 262.393 36.156 262.089 36.028C261.785 35.9 261.513 35.724 261.273 35.5C261.033 35.276 260.857 35.004 260.729 34.684C260.601 34.364 260.537 34.012 260.537 33.612V33.564Z" fill="white"/>
</g>
<defs>
<filter id="filter0_d_33_12101" x="0" y="0" width="319" height="72" filterUnits="userSpaceOnUse" color-interpolation-filters="sRGB">
<feFlood flood-opacity="0" result="BackgroundImageFix"/>
<feColorMatrix in="SourceAlpha" type="matrix" values="0 0 0 0 0 0 0 0 0 0 0 0 0 0 0 0 0 0 127 0" result="hardAlpha"/>
<feOffset dy="4"/>
<feGaussianBlur stdDeviation="6"/>
<feColorMatrix type="matrix" values="0 0 0 0 0.0413195 0 0 0 0 0.354167 0 0 0 0 0.175015 0 0 0 0.2 0"/>
<feBlend mode="normal" in2="BackgroundImageFix" result="effect1_dropShadow_33_12101"/>
<feBlend mode="normal" in="SourceGraphic" in2="effect1_dropShadow_33_12101" result="shape"/>
</filter>
</defs>
</svg>
