<svg width="1324" height="308" viewBox="0 0 1324 308" fill="none" xmlns="http://www.w3.org/2000/svg">
<path d="M1007.62 16.076H1009.31V21.728L1014.53 16.076H1016.76L1010.99 22.358L1017.38 29H1015L1009.31 23.15V29H1007.62V16.076ZM1025.93 22.646C1026.18 23.222 1026.31 23.846 1026.31 24.518C1026.31 25.19 1026.18 25.814 1025.93 26.39C1025.69 26.966 1025.36 27.464 1024.94 27.884C1024.53 28.304 1024.05 28.634 1023.5 28.874C1022.96 29.102 1022.38 29.216 1021.77 29.216C1021.16 29.216 1020.58 29.102 1020.02 28.874C1019.47 28.634 1018.99 28.304 1018.57 27.884C1018.16 27.464 1017.83 26.966 1017.59 26.39C1017.35 25.814 1017.23 25.19 1017.23 24.518C1017.23 23.846 1017.35 23.222 1017.59 22.646C1017.83 22.07 1018.16 21.572 1018.57 21.152C1018.99 20.732 1019.47 20.402 1020.02 20.162C1020.58 19.922 1021.16 19.802 1021.77 19.802C1022.38 19.802 1022.96 19.922 1023.5 20.162C1024.05 20.402 1024.53 20.732 1024.94 21.152C1025.36 21.572 1025.69 22.07 1025.93 22.646ZM1018.87 24.518C1018.87 24.962 1018.94 25.37 1019.09 25.742C1019.23 26.102 1019.44 26.414 1019.7 26.678C1019.96 26.93 1020.27 27.128 1020.62 27.272C1020.97 27.404 1021.35 27.47 1021.77 27.47C1022.18 27.47 1022.56 27.404 1022.9 27.272C1023.26 27.128 1023.58 26.93 1023.84 26.678C1024.1 26.414 1024.31 26.102 1024.45 25.742C1024.6 25.382 1024.67 24.98 1024.67 24.536C1024.67 24.092 1024.6 23.69 1024.45 23.33C1024.31 22.958 1024.1 22.64 1023.84 22.376C1023.58 22.112 1023.26 21.908 1022.9 21.764C1022.56 21.62 1022.18 21.548 1021.77 21.548C1021.35 21.548 1020.97 21.62 1020.62 21.764C1020.27 21.908 1019.96 22.112 1019.7 22.376C1019.44 22.64 1019.23 22.958 1019.09 23.33C1018.94 23.69 1018.87 24.086 1018.87 24.518ZM1029.98 20.018V23.492H1034.69V20.018H1036.33V29H1034.69V25.238H1029.98V29H1028.34V20.018H1029.98ZM1038.99 20.018H1040.63V23.798L1044.61 20.018H1046.84L1042.3 24.356L1047.27 29H1044.84L1040.63 25.04V29H1038.99V20.018ZM1047.35 20.018H1049.18L1051.94 26.624L1054.67 20.018H1056.49L1051.14 32.834H1049.33L1051.05 28.658L1047.35 20.018ZM1066.63 22.61C1066.88 23.186 1067.01 23.822 1067.01 24.518C1067.01 25.214 1066.88 25.85 1066.63 26.426C1066.38 27.002 1066.04 27.5 1065.62 27.92C1065.2 28.328 1064.71 28.646 1064.14 28.874C1063.59 29.102 1063.01 29.216 1062.4 29.216C1061.71 29.216 1061.13 29.102 1060.63 28.874C1060.14 28.646 1059.82 28.364 1059.68 28.028V32.834H1058.04V20.018H1059.63V20.972C1059.77 20.636 1060.09 20.36 1060.58 20.144C1061.08 19.916 1061.68 19.802 1062.36 19.802C1062.99 19.802 1063.58 19.916 1064.14 20.144C1064.71 20.372 1065.2 20.696 1065.62 21.116C1066.04 21.524 1066.38 22.022 1066.63 22.61ZM1065.37 24.482C1065.37 23.582 1065.09 22.868 1064.54 22.34C1063.99 21.812 1063.26 21.548 1062.34 21.548C1061.72 21.548 1061.16 21.692 1060.65 21.98C1060.16 22.256 1059.84 22.61 1059.68 23.042V25.976C1059.84 26.408 1060.16 26.768 1060.65 27.056C1061.16 27.332 1061.72 27.47 1062.34 27.47C1063.26 27.47 1063.99 27.2 1064.54 26.66C1065.09 26.12 1065.37 25.394 1065.37 24.482ZM1073.19 27.47C1073.47 27.47 1073.76 27.434 1074.03 27.362C1074.31 27.29 1074.57 27.2 1074.81 27.092C1075.06 26.984 1075.28 26.858 1075.47 26.714C1075.66 26.57 1075.83 26.426 1075.96 26.282L1076.39 27.56C1076.29 27.764 1076.14 27.962 1075.94 28.154C1075.75 28.346 1075.51 28.526 1075.22 28.694C1074.94 28.85 1074.63 28.976 1074.27 29.072C1073.91 29.168 1073.52 29.216 1073.1 29.216C1072.42 29.216 1071.8 29.108 1071.22 28.892C1070.66 28.664 1070.17 28.352 1069.75 27.956C1069.34 27.548 1069.02 27.056 1068.78 26.48C1068.55 25.892 1068.43 25.238 1068.43 24.518C1068.43 23.894 1068.54 23.3 1068.74 22.736C1068.94 22.16 1069.24 21.656 1069.62 21.224C1070.01 20.792 1070.47 20.45 1071.01 20.198C1071.55 19.934 1072.16 19.802 1072.84 19.802C1073.49 19.802 1074.07 19.928 1074.59 20.18C1075.11 20.432 1075.54 20.774 1075.9 21.206C1076.28 21.626 1076.56 22.124 1076.75 22.7C1076.94 23.264 1077.04 23.864 1077.04 24.5C1077.04 24.692 1077.02 24.896 1076.98 25.112H1070.11C1070.19 25.904 1070.51 26.498 1071.06 26.894C1071.61 27.278 1072.32 27.47 1073.19 27.47ZM1075.29 23.456C1075.27 23.192 1075.19 22.946 1075.06 22.718C1074.93 22.478 1074.75 22.274 1074.52 22.106C1074.3 21.926 1074.05 21.788 1073.76 21.692C1073.47 21.596 1073.17 21.548 1072.84 21.548C1072.52 21.548 1072.2 21.596 1071.89 21.692C1071.59 21.788 1071.32 21.92 1071.08 22.088C1070.85 22.256 1070.66 22.46 1070.5 22.7C1070.35 22.928 1070.25 23.18 1070.22 23.456H1075.29ZM1080.72 20.018V23.492H1085.44V20.018H1087.07V29H1085.44V25.238H1080.72V29H1079.08V20.018H1080.72ZM1096.5 21.764H1093.51V29H1091.87V21.764H1088.89V20.018H1096.5V21.764ZM1106.36 20.018H1107.99V29H1106.36V20.018ZM1098.31 29V20.018H1099.95V22.7H1101.6C1102.08 22.7 1102.53 22.778 1102.94 22.934C1103.36 23.09 1103.72 23.312 1104.02 23.6C1104.33 23.876 1104.57 24.206 1104.74 24.59C1104.92 24.974 1105.01 25.394 1105.01 25.85C1105.01 26.318 1104.92 26.744 1104.74 27.128C1104.56 27.512 1104.31 27.848 1104 28.136C1103.7 28.412 1103.34 28.628 1102.92 28.784C1102.5 28.928 1102.05 29 1101.59 29H1098.31ZM1101.82 27.254C1102.28 27.254 1102.64 27.122 1102.92 26.858C1103.19 26.582 1103.33 26.234 1103.33 25.814C1103.33 25.394 1103.18 25.064 1102.88 24.824C1102.59 24.572 1102.24 24.446 1101.82 24.446H1099.95V27.254H1101.82Z" fill="#219653"/>
<path d="M866.006 29H864.206L863.036 26.03H857.204L856.052 29H854.198L859.202 16.076H861.02L866.006 29ZM857.906 24.212H862.334L860.102 18.524L857.906 24.212ZM874.755 27.65C874.659 27.854 874.509 28.052 874.305 28.244C874.113 28.424 873.873 28.586 873.585 28.73C873.297 28.874 872.967 28.988 872.595 29.072C872.235 29.168 871.845 29.216 871.425 29.216C870.813 29.216 870.225 29.102 869.661 28.874C869.097 28.646 868.599 28.328 868.167 27.92C867.747 27.5 867.405 27.002 867.141 26.426C866.889 25.85 866.763 25.208 866.763 24.5C866.763 23.804 866.889 23.168 867.141 22.592C867.405 22.004 867.747 21.506 868.167 21.098C868.599 20.69 869.097 20.372 869.661 20.144C870.225 19.916 870.813 19.802 871.425 19.802C871.833 19.802 872.211 19.844 872.559 19.928C872.919 20.012 873.237 20.126 873.513 20.27C873.801 20.414 874.041 20.576 874.233 20.756C874.437 20.936 874.587 21.122 874.683 21.314L874.251 22.61C873.999 22.322 873.645 22.076 873.189 21.872C872.733 21.656 872.247 21.548 871.731 21.548C870.723 21.548 869.913 21.818 869.301 22.358C868.701 22.886 868.401 23.6 868.401 24.5C868.401 24.944 868.479 25.352 868.635 25.724C868.803 26.084 869.031 26.396 869.319 26.66C869.607 26.912 869.955 27.11 870.363 27.254C870.771 27.398 871.227 27.47 871.731 27.47C872.283 27.47 872.787 27.362 873.243 27.146C873.699 26.918 874.053 26.66 874.305 26.372L874.755 27.65ZM884.053 27.65C883.957 27.854 883.807 28.052 883.603 28.244C883.411 28.424 883.171 28.586 882.883 28.73C882.595 28.874 882.265 28.988 881.893 29.072C881.533 29.168 881.143 29.216 880.723 29.216C880.111 29.216 879.523 29.102 878.959 28.874C878.395 28.646 877.897 28.328 877.465 27.92C877.045 27.5 876.703 27.002 876.439 26.426C876.187 25.85 876.061 25.208 876.061 24.5C876.061 23.804 876.187 23.168 876.439 22.592C876.703 22.004 877.045 21.506 877.465 21.098C877.897 20.69 878.395 20.372 878.959 20.144C879.523 19.916 880.111 19.802 880.723 19.802C881.131 19.802 881.509 19.844 881.857 19.928C882.217 20.012 882.535 20.126 882.811 20.27C883.099 20.414 883.339 20.576 883.531 20.756C883.735 20.936 883.885 21.122 883.981 21.314L883.549 22.61C883.297 22.322 882.943 22.076 882.487 21.872C882.031 21.656 881.545 21.548 881.029 21.548C880.021 21.548 879.211 21.818 878.599 22.358C877.999 22.886 877.699 23.6 877.699 24.5C877.699 24.944 877.777 25.352 877.933 25.724C878.101 26.084 878.329 26.396 878.617 26.66C878.905 26.912 879.253 27.11 879.661 27.254C880.069 27.398 880.525 27.47 881.029 27.47C881.581 27.47 882.085 27.362 882.541 27.146C882.997 26.918 883.351 26.66 883.603 26.372L884.053 27.65ZM894.053 22.646C894.305 23.222 894.431 23.846 894.431 24.518C894.431 25.19 894.305 25.814 894.053 26.39C893.813 26.966 893.483 27.464 893.063 27.884C892.655 28.304 892.175 28.634 891.623 28.874C891.083 29.102 890.507 29.216 889.895 29.216C889.283 29.216 888.701 29.102 888.149 28.874C887.597 28.634 887.111 28.304 886.691 27.884C886.283 27.464 885.959 26.966 885.719 26.39C885.479 25.814 885.359 25.19 885.359 24.518C885.359 23.846 885.479 23.222 885.719 22.646C885.959 22.07 886.283 21.572 886.691 21.152C887.111 20.732 887.597 20.402 888.149 20.162C888.701 19.922 889.283 19.802 889.895 19.802C890.507 19.802 891.083 19.922 891.623 20.162C892.175 20.402 892.655 20.732 893.063 21.152C893.483 21.572 893.813 22.07 894.053 22.646ZM886.997 24.518C886.997 24.962 887.069 25.37 887.213 25.742C887.357 26.102 887.561 26.414 887.825 26.678C888.089 26.93 888.395 27.128 888.743 27.272C889.091 27.404 889.475 27.47 889.895 27.47C890.303 27.47 890.681 27.404 891.029 27.272C891.389 27.128 891.701 26.93 891.965 26.678C892.229 26.414 892.433 26.102 892.577 25.742C892.721 25.382 892.793 24.98 892.793 24.536C892.793 24.092 892.721 23.69 892.577 23.33C892.433 22.958 892.229 22.64 891.965 22.376C891.701 22.112 891.389 21.908 891.029 21.764C890.681 21.62 890.303 21.548 889.895 21.548C889.475 21.548 889.091 21.62 888.743 21.764C888.395 21.908 888.089 22.112 887.825 22.376C887.561 22.64 887.357 22.958 887.213 23.33C887.069 23.69 886.997 24.086 886.997 24.518ZM905.049 22.61C905.301 23.186 905.428 23.822 905.428 24.518C905.428 25.214 905.301 25.85 905.049 26.426C904.797 27.002 904.461 27.5 904.041 27.92C903.621 28.328 903.129 28.646 902.565 28.874C902.013 29.102 901.431 29.216 900.819 29.216C900.135 29.216 899.547 29.102 899.055 28.874C898.563 28.646 898.245 28.364 898.101 28.028V32.834H896.463V20.018H898.047V20.972C898.191 20.636 898.509 20.36 899.001 20.144C899.505 19.916 900.099 19.802 900.783 19.802C901.407 19.802 902.001 19.916 902.565 20.144C903.129 20.372 903.621 20.696 904.041 21.116C904.461 21.524 904.797 22.022 905.049 22.61ZM903.789 24.482C903.789 23.582 903.513 22.868 902.961 22.34C902.409 21.812 901.677 21.548 900.765 21.548C900.141 21.548 899.577 21.692 899.073 21.98C898.581 22.256 898.257 22.61 898.101 23.042V25.976C898.257 26.408 898.581 26.768 899.073 27.056C899.577 27.332 900.141 27.47 900.765 27.47C901.677 27.47 902.409 27.2 902.961 26.66C903.513 26.12 903.789 25.394 903.789 24.482ZM914.006 21.764H911.018V29H909.38V21.764H906.392V20.018H914.006V21.764ZM917.453 20.018V26.3L922.241 20.018H923.879V29H922.241V22.718L917.453 29H915.815V20.018H917.453ZM934.69 20.018H936.382L937.786 29H936.166L935.176 23.06L932.674 29H931.162L928.714 23.024L927.724 29H926.05L927.454 20.018H929.11L931.9 26.624L934.69 20.018ZM944.087 27.47C944.375 27.47 944.657 27.434 944.933 27.362C945.209 27.29 945.467 27.2 945.707 27.092C945.959 26.984 946.181 26.858 946.373 26.714C946.565 26.57 946.727 26.426 946.859 26.282L947.291 27.56C947.195 27.764 947.045 27.962 946.841 28.154C946.649 28.346 946.409 28.526 946.121 28.694C945.845 28.85 945.527 28.976 945.167 29.072C944.807 29.168 944.417 29.216 943.997 29.216C943.325 29.216 942.701 29.108 942.125 28.892C941.561 28.664 941.069 28.352 940.649 27.956C940.241 27.548 939.917 27.056 939.677 26.48C939.449 25.892 939.335 25.238 939.335 24.518C939.335 23.894 939.437 23.3 939.641 22.736C939.845 22.16 940.139 21.656 940.523 21.224C940.907 20.792 941.369 20.45 941.909 20.198C942.449 19.934 943.061 19.802 943.745 19.802C944.393 19.802 944.975 19.928 945.491 20.18C946.007 20.432 946.445 20.774 946.805 21.206C947.177 21.626 947.459 22.124 947.651 22.7C947.843 23.264 947.939 23.864 947.939 24.5C947.939 24.692 947.921 24.896 947.885 25.112H941.009C941.093 25.904 941.411 26.498 941.963 26.894C942.515 27.278 943.223 27.47 944.087 27.47ZM946.193 23.456C946.169 23.192 946.091 22.946 945.959 22.718C945.827 22.478 945.647 22.274 945.419 22.106C945.203 21.926 944.951 21.788 944.663 21.692C944.375 21.596 944.069 21.548 943.745 21.548C943.421 21.548 943.103 21.596 942.791 21.692C942.491 21.788 942.221 21.92 941.981 22.088C941.753 22.256 941.561 22.46 941.405 22.7C941.249 22.928 941.153 23.18 941.117 23.456H946.193ZM951.621 20.018V23.492H956.337V20.018H957.975V29H956.337V25.238H951.621V29H949.983V20.018H951.621ZM967.402 21.764H964.414V29H962.776V21.764H959.788V20.018H967.402V21.764Z" fill="#6E6E6E"/>
<path d="M687.62 16.076H697.826V29H696.134V17.894H689.312V29H687.62V16.076ZM709.209 22.61C709.461 23.186 709.587 23.822 709.587 24.518C709.587 25.214 709.461 25.85 709.209 26.426C708.957 27.002 708.621 27.5 708.201 27.92C707.781 28.328 707.289 28.646 706.725 28.874C706.173 29.102 705.591 29.216 704.979 29.216C704.295 29.216 703.707 29.102 703.215 28.874C702.723 28.646 702.405 28.364 702.261 28.028V32.834H700.623V20.018H702.207V20.972C702.351 20.636 702.669 20.36 703.161 20.144C703.665 19.916 704.259 19.802 704.943 19.802C705.567 19.802 706.161 19.916 706.725 20.144C707.289 20.372 707.781 20.696 708.201 21.116C708.621 21.524 708.957 22.022 709.209 22.61ZM707.949 24.482C707.949 23.582 707.673 22.868 707.121 22.34C706.569 21.812 705.837 21.548 704.925 21.548C704.301 21.548 703.737 21.692 703.233 21.98C702.741 22.256 702.417 22.61 702.261 23.042V25.976C702.417 26.408 702.741 26.768 703.233 27.056C703.737 27.332 704.301 27.47 704.925 27.47C705.837 27.47 706.569 27.2 707.121 26.66C707.673 26.12 707.949 25.394 707.949 24.482ZM717.782 20.018V29H716.144V26.21H714.578L712.652 29H710.78L712.904 25.922C712.34 25.682 711.89 25.322 711.554 24.842C711.218 24.35 711.05 23.774 711.05 23.114C711.05 22.646 711.134 22.226 711.302 21.854C711.482 21.47 711.716 21.146 712.004 20.882C712.304 20.606 712.652 20.396 713.048 20.252C713.456 20.096 713.894 20.018 714.362 20.018H717.782ZM714.092 21.764C713.66 21.764 713.318 21.896 713.066 22.16C712.814 22.412 712.688 22.736 712.688 23.132C712.688 23.564 712.82 23.894 713.084 24.122C713.348 24.35 713.684 24.464 714.092 24.464H716.144V21.764H714.092ZM728.585 20.018H730.277L731.681 29H730.061L729.071 23.06L726.569 29H725.057L722.609 23.024L721.619 29H719.945L721.349 20.018H723.005L725.795 26.624L728.585 20.018ZM741.888 20.018H743.526V29H741.888V20.018ZM733.842 29V20.018H735.48V22.7H737.136C737.616 22.7 738.06 22.778 738.468 22.934C738.888 23.09 739.248 23.312 739.548 23.6C739.86 23.876 740.1 24.206 740.268 24.59C740.448 24.974 740.538 25.394 740.538 25.85C740.538 26.318 740.448 26.744 740.268 27.128C740.088 27.512 739.842 27.848 739.53 28.136C739.23 28.412 738.87 28.628 738.45 28.784C738.03 28.928 737.586 29 737.118 29H733.842ZM737.352 27.254C737.808 27.254 738.174 27.122 738.45 26.858C738.726 26.582 738.864 26.234 738.864 25.814C738.864 25.394 738.714 25.064 738.414 24.824C738.126 24.572 737.772 24.446 737.352 24.446H735.48V27.254H737.352ZM750.321 27.47C750.609 27.47 750.891 27.434 751.167 27.362C751.443 27.29 751.701 27.2 751.941 27.092C752.193 26.984 752.415 26.858 752.607 26.714C752.799 26.57 752.961 26.426 753.093 26.282L753.525 27.56C753.429 27.764 753.279 27.962 753.075 28.154C752.883 28.346 752.643 28.526 752.355 28.694C752.079 28.85 751.761 28.976 751.401 29.072C751.041 29.168 750.651 29.216 750.231 29.216C749.559 29.216 748.935 29.108 748.359 28.892C747.795 28.664 747.303 28.352 746.883 27.956C746.475 27.548 746.151 27.056 745.911 26.48C745.683 25.892 745.569 25.238 745.569 24.518C745.569 23.894 745.671 23.3 745.875 22.736C746.079 22.16 746.373 21.656 746.757 21.224C747.141 20.792 747.603 20.45 748.143 20.198C748.683 19.934 749.295 19.802 749.979 19.802C750.627 19.802 751.209 19.928 751.725 20.18C752.241 20.432 752.679 20.774 753.039 21.206C753.411 21.626 753.693 22.124 753.885 22.7C754.077 23.264 754.173 23.864 754.173 24.5C754.173 24.692 754.155 24.896 754.119 25.112H747.243C747.327 25.904 747.645 26.498 748.197 26.894C748.749 27.278 749.457 27.47 750.321 27.47ZM752.427 23.456C752.403 23.192 752.325 22.946 752.193 22.718C752.061 22.478 751.881 22.274 751.653 22.106C751.437 21.926 751.185 21.788 750.897 21.692C750.609 21.596 750.303 21.548 749.979 21.548C749.655 21.548 749.337 21.596 749.025 21.692C748.725 21.788 748.455 21.92 748.215 22.088C747.987 22.256 747.795 22.46 747.639 22.7C747.483 22.928 747.387 23.18 747.351 23.456H752.427ZM760.589 26.354C760.829 26.654 761.159 26.918 761.579 27.146C762.011 27.362 762.515 27.47 763.091 27.47C763.955 27.47 764.687 27.29 765.287 26.93C765.887 26.57 766.271 26 766.439 25.22H762.695V23.51H766.349C766.145 22.826 765.761 22.328 765.197 22.016C764.645 21.704 763.973 21.548 763.181 21.548C762.665 21.548 762.179 21.656 761.723 21.872C761.267 22.088 760.913 22.34 760.661 22.628L760.229 21.332C760.313 21.14 760.457 20.954 760.661 20.774C760.865 20.582 761.105 20.414 761.381 20.27C761.669 20.126 761.987 20.012 762.335 19.928C762.695 19.844 763.079 19.802 763.487 19.802C764.147 19.802 764.759 19.916 765.323 20.144C765.887 20.372 766.379 20.696 766.799 21.116C767.219 21.524 767.549 22.022 767.789 22.61C768.029 23.186 768.149 23.822 768.149 24.518C768.149 25.226 768.029 25.868 767.789 26.444C767.549 27.02 767.219 27.512 766.799 27.92C766.379 28.328 765.887 28.646 765.323 28.874C764.759 29.102 764.147 29.216 763.487 29.216C763.103 29.216 762.731 29.174 762.371 29.09C762.011 29.006 761.681 28.892 761.381 28.748C761.093 28.604 760.841 28.442 760.625 28.262C760.421 28.082 760.265 27.89 760.157 27.686L760.589 26.354ZM771.215 24.536C771.215 25.508 771.521 26.228 772.133 26.696C772.745 27.164 773.549 27.398 774.545 27.398V21.656C774.053 21.656 773.603 21.716 773.195 21.836C772.787 21.944 772.433 22.118 772.133 22.358C771.845 22.598 771.617 22.898 771.449 23.258C771.293 23.618 771.215 24.044 771.215 24.536ZM776.183 19.802C776.915 19.814 777.587 19.934 778.199 20.162C778.811 20.378 779.333 20.69 779.765 21.098C780.209 21.506 780.551 22.004 780.791 22.592C781.031 23.168 781.151 23.816 781.151 24.536C781.151 25.256 781.031 25.904 780.791 26.48C780.551 27.044 780.209 27.53 779.765 27.938C779.333 28.346 778.811 28.658 778.199 28.874C777.587 29.09 776.915 29.204 776.183 29.216V32.834H774.545V29.216C773.813 29.204 773.141 29.09 772.529 28.874C771.917 28.658 771.389 28.346 770.945 27.938C770.513 27.53 770.177 27.044 769.937 26.48C769.697 25.904 769.577 25.256 769.577 24.536C769.577 23.816 769.697 23.168 769.937 22.592C770.177 22.004 770.513 21.506 770.945 21.098C771.389 20.69 771.917 20.378 772.529 20.162C773.141 19.934 773.813 19.814 774.545 19.802V15.896H776.183V19.802ZM779.513 24.536C779.513 24.044 779.429 23.618 779.261 23.258C779.105 22.898 778.877 22.598 778.577 22.358C778.289 22.118 777.941 21.944 777.533 21.836C777.125 21.716 776.675 21.656 776.183 21.656V27.398C777.179 27.398 777.983 27.164 778.595 26.696C779.207 26.228 779.513 25.508 779.513 24.536ZM784.834 20.018V26.3L789.622 20.018H791.26V29H789.622V22.718L784.834 29H783.196V20.018H784.834ZM802.503 22.61C802.755 23.186 802.881 23.822 802.881 24.518C802.881 25.214 802.755 25.85 802.503 26.426C802.251 27.002 801.915 27.5 801.495 27.92C801.075 28.328 800.583 28.646 800.019 28.874C799.467 29.102 798.885 29.216 798.273 29.216C797.589 29.216 797.001 29.102 796.509 28.874C796.017 28.646 795.699 28.364 795.555 28.028V32.834H793.917V20.018H795.501V20.972C795.645 20.636 795.963 20.36 796.455 20.144C796.959 19.916 797.553 19.802 798.237 19.802C798.861 19.802 799.455 19.916 800.019 20.144C800.583 20.372 801.075 20.696 801.495 21.116C801.915 21.524 802.251 22.022 802.503 22.61ZM801.243 24.482C801.243 23.582 800.967 22.868 800.415 22.34C799.863 21.812 799.131 21.548 798.219 21.548C797.595 21.548 797.031 21.692 796.527 21.98C796.035 22.256 795.711 22.61 795.555 23.042V25.976C795.711 26.408 796.035 26.768 796.527 27.056C797.031 27.332 797.595 27.47 798.219 27.47C799.131 27.47 799.863 27.2 800.415 26.66C800.967 26.12 801.243 25.394 801.243 24.482ZM812.966 20.018H814.604V29H812.966V20.018ZM804.92 29V20.018H806.558V22.7H808.214C808.694 22.7 809.138 22.778 809.546 22.934C809.966 23.09 810.326 23.312 810.626 23.6C810.938 23.876 811.178 24.206 811.346 24.59C811.526 24.974 811.616 25.394 811.616 25.85C811.616 26.318 811.526 26.744 811.346 27.128C811.166 27.512 810.92 27.848 810.608 28.136C810.308 28.412 809.948 28.628 809.528 28.784C809.108 28.928 808.664 29 808.196 29H804.92ZM808.43 27.254C808.886 27.254 809.252 27.122 809.528 26.858C809.804 26.582 809.942 26.234 809.942 25.814C809.942 25.394 809.792 25.064 809.492 24.824C809.204 24.572 808.85 24.446 808.43 24.446H806.558V27.254H808.43Z" fill="#6E6E6E"/>
<rect x="1147.43" y="0.433333" width="176.133" height="47.1333" rx="23.5667" stroke="#219653" stroke-width="0.866667"/>
<path d="M1177.75 22.034C1178.29 22.334 1178.72 22.76 1179.05 23.312C1179.38 23.864 1179.55 24.53 1179.55 25.31C1179.55 25.91 1179.45 26.45 1179.24 26.93C1179.04 27.41 1178.76 27.824 1178.4 28.172C1178.04 28.508 1177.61 28.766 1177.12 28.946C1176.63 29.126 1176.09 29.216 1175.52 29.216C1175.04 29.216 1174.59 29.156 1174.17 29.036C1173.75 28.916 1173.37 28.76 1173.03 28.568C1172.7 28.364 1172.42 28.136 1172.19 27.884C1171.96 27.632 1171.79 27.38 1171.68 27.128L1172.15 25.58C1172.57 26.18 1173.07 26.63 1173.65 26.93C1174.23 27.23 1174.86 27.38 1175.52 27.38C1176.24 27.38 1176.8 27.188 1177.21 26.804C1177.63 26.42 1177.84 25.898 1177.84 25.238C1177.84 24.974 1177.79 24.716 1177.68 24.464C1177.57 24.212 1177.41 23.99 1177.21 23.798C1177.01 23.594 1176.75 23.438 1176.44 23.33C1176.12 23.21 1175.76 23.15 1175.36 23.15H1174.26V21.314H1175.39C1175.7 21.314 1175.98 21.266 1176.22 21.17C1176.46 21.062 1176.66 20.924 1176.83 20.756C1177 20.588 1177.13 20.396 1177.21 20.18C1177.29 19.952 1177.34 19.712 1177.34 19.46C1177.34 18.968 1177.17 18.554 1176.85 18.218C1176.53 17.87 1176.09 17.696 1175.54 17.696C1174.9 17.696 1174.34 17.846 1173.86 18.146C1173.38 18.446 1172.97 18.83 1172.62 19.298L1172.26 17.66C1172.39 17.408 1172.57 17.174 1172.78 16.958C1173.01 16.742 1173.26 16.556 1173.54 16.4C1173.83 16.232 1174.14 16.1 1174.47 16.004C1174.81 15.908 1175.16 15.86 1175.52 15.86C1176.03 15.86 1176.51 15.95 1176.94 16.13C1177.37 16.298 1177.74 16.538 1178.06 16.85C1178.37 17.15 1178.61 17.51 1178.78 17.93C1178.94 18.35 1179.03 18.812 1179.03 19.316C1179.03 19.88 1178.91 20.396 1178.69 20.864C1178.46 21.332 1178.15 21.722 1177.75 22.034ZM1187.35 25.814C1187.21 25.562 1186.92 25.376 1186.49 25.256C1186.06 25.124 1185.59 25.058 1185.1 25.058C1184.42 25.058 1183.88 25.166 1183.5 25.382C1183.13 25.586 1182.94 25.88 1182.94 26.264C1182.94 26.624 1183.12 26.918 1183.48 27.146C1183.85 27.362 1184.39 27.47 1185.1 27.47C1185.34 27.47 1185.58 27.446 1185.8 27.398C1186.04 27.35 1186.27 27.284 1186.47 27.2C1186.67 27.116 1186.85 27.014 1187.01 26.894C1187.17 26.774 1187.28 26.642 1187.35 26.498V25.814ZM1181.79 21.368C1182.13 20.9 1182.59 20.522 1183.18 20.234C1183.76 19.946 1184.42 19.802 1185.14 19.802C1186.34 19.802 1187.28 20.114 1187.96 20.738C1188.65 21.35 1188.99 22.214 1188.99 23.33V29H1187.41V28.208C1187.3 28.364 1187.15 28.502 1186.96 28.622C1186.76 28.742 1186.55 28.85 1186.31 28.946C1186.08 29.03 1185.84 29.096 1185.59 29.144C1185.34 29.192 1185.08 29.216 1184.83 29.216C1183.76 29.216 1182.91 28.964 1182.26 28.46C1181.62 27.944 1181.3 27.224 1181.3 26.3C1181.3 25.832 1181.39 25.418 1181.57 25.058C1181.77 24.698 1182.02 24.392 1182.35 24.14C1182.67 23.888 1183.05 23.702 1183.48 23.582C1183.91 23.45 1184.38 23.384 1184.89 23.384C1185.09 23.384 1185.31 23.402 1185.53 23.438C1185.77 23.462 1186 23.504 1186.22 23.564C1186.45 23.624 1186.66 23.702 1186.85 23.798C1187.04 23.882 1187.21 23.99 1187.35 24.122V23.69C1187.35 23.318 1187.29 23 1187.15 22.736C1187.02 22.46 1186.85 22.238 1186.63 22.07C1186.42 21.89 1186.16 21.758 1185.86 21.674C1185.57 21.59 1185.26 21.548 1184.94 21.548C1184.36 21.548 1183.84 21.662 1183.37 21.89C1182.91 22.118 1182.53 22.418 1182.26 22.79L1181.79 21.368ZM1191.85 20.018H1193.49V23.798L1197.46 20.018H1199.7L1195.16 24.356L1200.13 29H1197.7L1193.49 25.04V29H1191.85V20.018ZM1207.07 25.814C1206.93 25.562 1206.64 25.376 1206.21 25.256C1205.78 25.124 1205.32 25.058 1204.82 25.058C1204.14 25.058 1203.61 25.166 1203.22 25.382C1202.85 25.586 1202.66 25.88 1202.66 26.264C1202.66 26.624 1202.84 26.918 1203.2 27.146C1203.58 27.362 1204.12 27.47 1204.82 27.47C1205.06 27.47 1205.3 27.446 1205.53 27.398C1205.77 27.35 1205.99 27.284 1206.19 27.2C1206.4 27.116 1206.58 27.014 1206.73 26.894C1206.89 26.774 1207 26.642 1207.07 26.498V25.814ZM1201.51 21.368C1201.85 20.9 1202.31 20.522 1202.9 20.234C1203.49 19.946 1204.14 19.802 1204.86 19.802C1206.06 19.802 1207 20.114 1207.69 20.738C1208.37 21.35 1208.71 22.214 1208.71 23.33V29H1207.13V28.208C1207.02 28.364 1206.87 28.502 1206.68 28.622C1206.49 28.742 1206.27 28.85 1206.03 28.946C1205.8 29.03 1205.56 29.096 1205.31 29.144C1205.06 29.192 1204.81 29.216 1204.55 29.216C1203.49 29.216 1202.63 28.964 1201.98 28.46C1201.34 27.944 1201.03 27.224 1201.03 26.3C1201.03 25.832 1201.12 25.418 1201.3 25.058C1201.49 24.698 1201.75 24.392 1202.07 24.14C1202.39 23.888 1202.77 23.702 1203.2 23.582C1203.64 23.45 1204.1 23.384 1204.61 23.384C1204.81 23.384 1205.03 23.402 1205.26 23.438C1205.5 23.462 1205.72 23.504 1205.94 23.564C1206.17 23.624 1206.38 23.702 1206.57 23.798C1206.76 23.882 1206.93 23.99 1207.07 24.122V23.69C1207.07 23.318 1207.01 23 1206.88 22.736C1206.74 22.46 1206.57 22.238 1206.35 22.07C1206.14 21.89 1205.88 21.758 1205.58 21.674C1205.29 21.59 1204.99 21.548 1204.66 21.548C1204.09 21.548 1203.56 21.662 1203.1 21.89C1202.63 22.118 1202.26 22.418 1201.98 22.79L1201.51 21.368ZM1214.11 27.47C1214.74 27.47 1215.22 27.356 1215.55 27.128C1215.88 26.9 1216.05 26.63 1216.05 26.318C1216.05 25.994 1215.91 25.736 1215.62 25.544C1215.34 25.34 1214.94 25.238 1214.4 25.238H1213.21V23.492H1214.23C1214.7 23.492 1215.06 23.414 1215.31 23.258C1215.57 23.09 1215.69 22.832 1215.69 22.484C1215.69 22.208 1215.55 21.986 1215.28 21.818C1215.01 21.638 1214.65 21.548 1214.2 21.548C1213.78 21.548 1213.36 21.626 1212.94 21.782C1212.52 21.938 1212.1 22.208 1211.7 22.592L1211.26 21.278C1211.58 20.858 1211.99 20.51 1212.51 20.234C1213.03 19.946 1213.65 19.802 1214.34 19.802C1214.79 19.802 1215.19 19.862 1215.57 19.982C1215.94 20.102 1216.26 20.27 1216.52 20.486C1216.78 20.702 1216.99 20.966 1217.13 21.278C1217.29 21.578 1217.37 21.92 1217.37 22.304C1217.37 22.748 1217.27 23.138 1217.08 23.474C1216.9 23.81 1216.65 24.056 1216.32 24.212C1217.28 24.596 1217.76 25.346 1217.76 26.462C1217.76 26.882 1217.67 27.26 1217.47 27.596C1217.28 27.932 1217.02 28.22 1216.68 28.46C1216.36 28.7 1215.98 28.886 1215.55 29.018C1215.12 29.15 1214.67 29.216 1214.2 29.216C1213.48 29.216 1212.84 29.084 1212.29 28.82C1211.75 28.556 1211.31 28.178 1210.96 27.686L1211.39 26.354C1212 27.098 1212.91 27.47 1214.11 27.47ZM1225.55 25.814C1225.4 25.562 1225.12 25.376 1224.68 25.256C1224.25 25.124 1223.79 25.058 1223.3 25.058C1222.61 25.058 1222.08 25.166 1221.7 25.382C1221.32 25.586 1221.14 25.88 1221.14 26.264C1221.14 26.624 1221.32 26.918 1221.68 27.146C1222.05 27.362 1222.59 27.47 1223.3 27.47C1223.54 27.47 1223.77 27.446 1224 27.398C1224.24 27.35 1224.46 27.284 1224.67 27.2C1224.87 27.116 1225.05 27.014 1225.21 26.894C1225.36 26.774 1225.48 26.642 1225.55 26.498V25.814ZM1219.99 21.368C1220.32 20.9 1220.78 20.522 1221.37 20.234C1221.96 19.946 1222.61 19.802 1223.33 19.802C1224.53 19.802 1225.48 20.114 1226.16 20.738C1226.84 21.35 1227.19 22.214 1227.19 23.33V29H1225.6V28.208C1225.49 28.364 1225.34 28.502 1225.15 28.622C1224.96 28.742 1224.74 28.85 1224.5 28.946C1224.28 29.03 1224.04 29.096 1223.78 29.144C1223.53 29.192 1223.28 29.216 1223.03 29.216C1221.96 29.216 1221.1 28.964 1220.45 28.46C1219.82 27.944 1219.5 27.224 1219.5 26.3C1219.5 25.832 1219.59 25.418 1219.77 25.058C1219.96 24.698 1220.22 24.392 1220.54 24.14C1220.87 23.888 1221.25 23.702 1221.68 23.582C1222.11 23.45 1222.58 23.384 1223.08 23.384C1223.29 23.384 1223.5 23.402 1223.73 23.438C1223.97 23.462 1224.2 23.504 1224.41 23.564C1224.64 23.624 1224.85 23.702 1225.04 23.798C1225.24 23.882 1225.4 23.99 1225.55 24.122V23.69C1225.55 23.318 1225.48 23 1225.35 22.736C1225.22 22.46 1225.04 22.238 1224.83 22.07C1224.61 21.89 1224.35 21.758 1224.05 21.674C1223.77 21.59 1223.46 21.548 1223.14 21.548C1222.56 21.548 1222.04 21.662 1221.57 21.89C1221.1 22.118 1220.73 22.418 1220.45 22.79L1219.99 21.368ZM1236.81 21.764H1233.82V29H1232.19V21.764H1229.2V20.018H1236.81V21.764ZM1238.92 29V20.018H1240.56V22.7H1242.4C1242.88 22.7 1243.32 22.778 1243.73 22.934C1244.15 23.09 1244.51 23.312 1244.81 23.6C1245.12 23.876 1245.36 24.206 1245.53 24.59C1245.71 24.974 1245.8 25.394 1245.8 25.85C1245.8 26.318 1245.71 26.744 1245.53 27.128C1245.35 27.512 1245.1 27.848 1244.79 28.136C1244.49 28.412 1244.13 28.628 1243.71 28.784C1243.29 28.928 1242.85 29 1242.38 29H1238.92ZM1242.61 27.254C1243.07 27.254 1243.43 27.122 1243.71 26.858C1243.99 26.582 1244.12 26.234 1244.12 25.814C1244.12 25.394 1243.97 25.064 1243.67 24.824C1243.39 24.572 1243.03 24.446 1242.61 24.446H1240.56V27.254H1242.61ZM1261.01 22.646C1261.27 23.222 1261.39 23.846 1261.39 24.518C1261.39 25.19 1261.27 25.814 1261.01 26.39C1260.77 26.966 1260.44 27.464 1260.02 27.884C1259.62 28.304 1259.14 28.634 1258.58 28.874C1258.04 29.102 1257.47 29.216 1256.86 29.216C1256.24 29.216 1255.66 29.102 1255.11 28.874C1254.56 28.634 1254.07 28.304 1253.65 27.884C1253.24 27.464 1252.92 26.966 1252.68 26.39C1252.44 25.814 1252.32 25.19 1252.32 24.518C1252.32 23.846 1252.44 23.222 1252.68 22.646C1252.92 22.07 1253.24 21.572 1253.65 21.152C1254.07 20.732 1254.56 20.402 1255.11 20.162C1255.66 19.922 1256.24 19.802 1256.86 19.802C1257.47 19.802 1258.04 19.922 1258.58 20.162C1259.14 20.402 1259.62 20.732 1260.02 21.152C1260.44 21.572 1260.77 22.07 1261.01 22.646ZM1253.96 24.518C1253.96 24.962 1254.03 25.37 1254.17 25.742C1254.32 26.102 1254.52 26.414 1254.79 26.678C1255.05 26.93 1255.36 27.128 1255.7 27.272C1256.05 27.404 1256.44 27.47 1256.86 27.47C1257.26 27.47 1257.64 27.404 1257.99 27.272C1258.35 27.128 1258.66 26.93 1258.93 26.678C1259.19 26.414 1259.39 26.102 1259.54 25.742C1259.68 25.382 1259.75 24.98 1259.75 24.536C1259.75 24.092 1259.68 23.69 1259.54 23.33C1259.39 22.958 1259.19 22.64 1258.93 22.376C1258.66 22.112 1258.35 21.908 1257.99 21.764C1257.64 21.62 1257.26 21.548 1256.86 21.548C1256.44 21.548 1256.05 21.62 1255.7 21.764C1255.36 21.908 1255.05 22.112 1254.79 22.376C1254.52 22.64 1254.32 22.958 1254.17 23.33C1254.03 23.69 1253.96 24.086 1253.96 24.518ZM1270.26 21.764H1267.28V29H1265.64V21.764H1262.65V20.018H1270.26V21.764ZM1271.89 20.018H1273.52V22.034C1273.52 22.778 1273.68 23.294 1273.99 23.582C1274.32 23.858 1274.78 23.996 1275.38 23.996C1275.67 23.996 1275.96 23.966 1276.26 23.906C1276.56 23.846 1276.82 23.744 1277.05 23.6V20.018H1278.69V29H1277.05V25.436C1276.84 25.532 1276.59 25.61 1276.31 25.67C1276.04 25.718 1275.71 25.742 1275.32 25.742C1274.87 25.742 1274.43 25.682 1274.01 25.562C1273.59 25.442 1273.22 25.25 1272.91 24.986C1272.6 24.71 1272.35 24.356 1272.16 23.924C1271.98 23.492 1271.89 22.97 1271.89 22.358V20.018ZM1285.78 27.47C1286.06 27.47 1286.35 27.434 1286.62 27.362C1286.9 27.29 1287.16 27.2 1287.4 27.092C1287.65 26.984 1287.87 26.858 1288.06 26.714C1288.25 26.57 1288.42 26.426 1288.55 26.282L1288.98 27.56C1288.88 27.764 1288.73 27.962 1288.53 28.154C1288.34 28.346 1288.1 28.526 1287.81 28.694C1287.53 28.85 1287.22 28.976 1286.86 29.072C1286.5 29.168 1286.11 29.216 1285.69 29.216C1285.01 29.216 1284.39 29.108 1283.81 28.892C1283.25 28.664 1282.76 28.352 1282.34 27.956C1281.93 27.548 1281.61 27.056 1281.37 26.48C1281.14 25.892 1281.02 25.238 1281.02 24.518C1281.02 23.894 1281.13 23.3 1281.33 22.736C1281.53 22.16 1281.83 21.656 1282.21 21.224C1282.6 20.792 1283.06 20.45 1283.6 20.198C1284.14 19.934 1284.75 19.802 1285.43 19.802C1286.08 19.802 1286.66 19.928 1287.18 20.18C1287.7 20.432 1288.13 20.774 1288.49 21.206C1288.87 21.626 1289.15 22.124 1289.34 22.7C1289.53 23.264 1289.63 23.864 1289.63 24.5C1289.63 24.692 1289.61 24.896 1289.57 25.112H1282.7C1282.78 25.904 1283.1 26.498 1283.65 26.894C1284.2 27.278 1284.91 27.47 1285.78 27.47ZM1287.88 23.456C1287.86 23.192 1287.78 22.946 1287.65 22.718C1287.52 22.478 1287.34 22.274 1287.11 22.106C1286.89 21.926 1286.64 21.788 1286.35 21.692C1286.06 21.596 1285.76 21.548 1285.43 21.548C1285.11 21.548 1284.79 21.596 1284.48 21.692C1284.18 21.788 1283.91 21.92 1283.67 22.088C1283.44 22.256 1283.25 22.46 1283.09 22.7C1282.94 22.928 1282.84 23.18 1282.81 23.456H1287.88ZM1298.65 21.764H1295.66V29H1294.03V21.764H1291.04V20.018H1298.65V21.764Z" fill="#219653"/>
<line x1="29.7071" y1="53.3783" x2="51.3757" y2="75.0469" stroke="#219653" stroke-width="2"/>
<line x1="49.9628" y1="75.0473" x2="98.717" y2="26.2931" stroke="#219653" stroke-width="2"/>
<line x1="29.7071" y1="60.1498" x2="51.3757" y2="81.8184" stroke="#219653" stroke-width="2"/>
<line x1="49.9609" y1="81.8188" x2="98.7151" y2="33.0645" stroke="#219653" stroke-width="2"/>
<line x1="29.7071" y1="66.9213" x2="51.3757" y2="88.5899" stroke="#219653" stroke-width="2"/>
<line x1="49.9609" y1="88.5903" x2="98.7151" y2="39.836" stroke="#219653" stroke-width="2"/>
<line x1="29.7071" y1="73.6928" x2="51.3757" y2="95.3613" stroke="#219653" stroke-width="2"/>
<line x1="49.9609" y1="95.3613" x2="98.7151" y2="46.607" stroke="#219653" stroke-width="2"/>
<line x1="29.7071" y1="80.4643" x2="51.3757" y2="102.133" stroke="#219653" stroke-width="2"/>
<line x1="49.9609" y1="102.133" x2="98.7151" y2="53.3785" stroke="#219653" stroke-width="2"/>
<line x1="29.7071" y1="87.0868" x2="51.3757" y2="108.755" stroke="#219653" stroke-width="2"/>
<line x1="49.9609" y1="108.755" x2="98.7151" y2="60.0011" stroke="#219653" stroke-width="2"/>
<path d="M21.8004 128.122L18.4344 138.356L15.0684 128.122H11.5664L8.2004 138.356L4.83439 128.122H0.584393L6.46639 144H9.7644L13.3004 133.154L17.0064 144H20.3384L26.0504 128.122H21.8004ZM43.2804 135.908C43.2804 130.944 39.7104 127.782 35.1544 127.782C30.6324 127.782 26.8244 130.978 26.8244 136.044C26.8244 141.008 30.4284 144.34 35.1884 144.34C38.0784 144.34 40.8664 143.116 42.3284 140.804L39.7104 138.798C38.7584 140.09 37.1264 140.77 35.3924 140.77C33.0464 140.77 31.3464 139.648 30.9044 137.438H43.1784C43.2464 136.86 43.2804 136.35 43.2804 135.908ZM30.9044 134.684C31.3804 132.27 33.0804 131.25 35.2224 131.25C37.4324 131.25 39.0984 132.508 39.3364 134.684H30.9044ZM53.839 144.306C56.593 144.306 58.837 143.082 60.299 141.246L57.477 139.036C56.661 140.022 55.301 140.634 53.907 140.634C51.153 140.634 49.181 138.696 49.181 136.044C49.181 133.358 51.153 131.454 53.907 131.454C55.301 131.454 56.661 132.066 57.477 133.052L60.299 130.842C58.837 128.972 56.593 127.782 53.839 127.782C49.249 127.782 45.203 131.012 45.203 136.044C45.203 141.076 49.249 144.306 53.839 144.306ZM71.8479 127.782C70.2499 127.782 67.6999 128.632 66.9179 130.536V119.622H62.9739V144H66.9179V135.704C66.9179 132.644 69.1619 131.658 70.9639 131.658C72.7319 131.658 74.2619 132.95 74.2619 135.466V144H78.2059V135.092C78.2059 130.468 75.9279 127.782 71.8479 127.782ZM97.4865 135.908C97.4865 130.944 93.9165 127.782 89.3605 127.782C84.8385 127.782 81.0305 130.978 81.0305 136.044C81.0305 141.008 84.6345 144.34 89.3945 144.34C92.2845 144.34 95.0725 143.116 96.5345 140.804L93.9165 138.798C92.9645 140.09 91.3325 140.77 89.5985 140.77C87.2525 140.77 85.5525 139.648 85.1105 137.438H97.3845C97.4525 136.86 97.4865 136.35 97.4865 135.908ZM85.1105 134.684C85.5865 132.27 87.2865 131.25 89.4285 131.25C91.6385 131.25 93.3045 132.508 93.5425 134.684H85.1105ZM108.045 144.306C110.799 144.306 113.043 143.082 114.505 141.246L111.683 139.036C110.867 140.022 109.507 140.634 108.113 140.634C105.359 140.634 103.387 138.696 103.387 136.044C103.387 133.358 105.359 131.454 108.113 131.454C109.507 131.454 110.867 132.066 111.683 133.052L114.505 130.842C113.043 128.972 110.799 127.782 108.045 127.782C103.455 127.782 99.4091 131.012 99.4091 136.044C99.4091 141.076 103.455 144.306 108.045 144.306ZM132.31 144L124.354 135.058L130.814 128.122H125.68L121.124 133.188V119.622H117.18V144H121.124V136.792L127.312 144H132.31Z" fill="#111111"/>
<path d="M230.723 222.636C229.499 222.636 228.383 222.456 227.375 222.096C226.367 221.736 225.503 221.232 224.783 220.584C224.063 219.936 223.487 219.144 223.055 218.208C222.623 217.272 222.407 216.228 222.407 215.076C222.407 213.924 222.623 212.88 223.055 211.944C223.487 211.008 224.063 210.216 224.783 209.568C225.503 208.92 226.367 208.416 227.375 208.056C228.383 207.696 229.499 207.516 230.723 207.516C231.551 207.516 232.343 207.624 233.099 207.804C233.855 207.984 234.539 208.236 235.187 208.56C235.835 208.884 236.411 209.244 236.915 209.64C237.419 210.036 237.815 210.432 238.139 210.828L239.831 206.004C239.471 205.392 238.967 204.816 238.355 204.276C237.743 203.736 237.023 203.268 236.195 202.872C235.367 202.476 234.467 202.152 233.459 201.936C232.451 201.72 231.371 201.612 230.255 201.612C228.491 201.612 226.799 201.936 225.179 202.584C223.559 203.232 222.119 204.168 220.859 205.356C219.599 206.544 218.591 207.948 217.835 209.604C217.079 211.26 216.683 213.096 216.683 215.076C216.683 217.056 217.043 218.892 217.799 220.548C218.555 222.204 219.563 223.608 220.823 224.796C222.083 225.984 223.523 226.92 225.143 227.568C226.763 228.216 228.455 228.54 230.219 228.54C232.595 228.54 234.611 228.108 236.303 227.28C237.995 226.452 239.219 225.372 239.975 224.076L238.247 219.144C237.923 219.576 237.527 220.008 237.059 220.44C236.591 220.872 236.015 221.232 235.367 221.556C234.719 221.88 233.999 222.132 233.207 222.348C232.415 222.564 231.587 222.672 230.687 222.672L230.723 222.636ZM241.117 223.032L242.017 227.82C242.197 227.928 242.485 228 242.881 228.072C243.277 228.144 243.673 228.18 244.069 228.18C245.041 228.18 245.905 227.964 246.661 227.532C247.417 227.1 248.065 226.416 248.605 225.444C249.145 224.472 249.577 223.248 249.901 221.736C250.225 220.224 250.441 218.388 250.549 216.264L250.621 214.752H255.301V228.072H260.557V209.208H245.797L245.761 211.152C245.725 213.06 245.653 214.68 245.545 216.012C245.437 217.344 245.293 218.46 245.113 219.36C244.933 220.26 244.717 220.944 244.465 221.448C244.213 221.952 243.925 222.312 243.601 222.564C243.277 222.816 242.917 222.96 242.521 223.032C242.125 223.104 241.693 223.14 241.225 223.176L241.117 223.032ZM283.55 218.604C283.55 217.272 283.334 216.012 282.902 214.824C282.47 213.636 281.822 212.592 280.994 211.656C280.166 210.72 279.158 210 278.006 209.46C276.854 208.92 275.558 208.632 274.154 208.632C272.642 208.632 271.274 208.92 270.05 209.46C268.826 210 267.782 210.72 266.918 211.62C266.054 212.52 265.406 213.6 264.938 214.824C264.47 216.048 264.254 217.344 264.254 218.676C264.254 220.224 264.506 221.592 265.046 222.816C265.586 224.04 266.306 225.084 267.206 225.948C268.106 226.812 269.186 227.46 270.446 227.928C271.706 228.396 273.038 228.612 274.478 228.612C276.206 228.612 277.718 228.324 279.05 227.712C280.382 227.1 281.39 226.272 282.074 225.228L280.382 221.16C279.842 221.916 279.014 222.492 277.934 222.888C276.854 223.284 275.738 223.5 274.586 223.5C273.326 223.5 272.246 223.284 271.346 222.816C270.446 222.348 269.87 221.628 269.618 220.62H283.334C283.37 220.404 283.406 220.116 283.406 219.756C283.406 219.396 283.406 219.072 283.406 218.748L283.55 218.604ZM278.078 216.66H269.69C269.942 215.76 270.446 215.076 271.238 214.608C272.03 214.14 272.93 213.924 273.974 213.924C274.982 213.924 275.846 214.14 276.602 214.608C277.358 215.076 277.826 215.76 278.006 216.66H278.078ZM287.292 222.528H285.384V233.004H290.604V228H301.62V233.004H306.768V222.528H304.32V209.136H290.1V210.612C290.1 213.276 289.848 215.616 289.308 217.632C288.768 219.648 288.084 221.304 287.256 222.564L287.292 222.528ZM298.992 222.564H292.692C293.232 221.556 293.664 220.404 293.988 219.108C294.312 217.812 294.564 216.336 294.744 214.644H298.992V222.564ZM315.308 209.136H310.16V228H315.416L323.084 217.668V228H328.268V209.136H323.012L315.308 219.504V209.136ZM347.928 214.608V209.136H331.548V214.608H337.092V228H342.384V214.608H347.928ZM369.256 218.604C369.256 217.272 369.04 216.012 368.608 214.824C368.176 213.636 367.528 212.592 366.7 211.656C365.872 210.72 364.864 210 363.712 209.46C362.56 208.92 361.264 208.632 359.86 208.632C358.348 208.632 356.98 208.92 355.756 209.46C354.532 210 353.488 210.72 352.624 211.62C351.76 212.52 351.112 213.6 350.644 214.824C350.176 216.048 349.96 217.344 349.96 218.676C349.96 220.224 350.212 221.592 350.752 222.816C351.292 224.04 352.012 225.084 352.912 225.948C353.812 226.812 354.892 227.46 356.152 227.928C357.412 228.396 358.744 228.612 360.184 228.612C361.912 228.612 363.424 228.324 364.756 227.712C366.088 227.1 367.096 226.272 367.78 225.228L366.088 221.16C365.548 221.916 364.72 222.492 363.64 222.888C362.56 223.284 361.444 223.5 360.292 223.5C359.032 223.5 357.952 223.284 357.052 222.816C356.152 222.348 355.576 221.628 355.324 220.62H369.04C369.076 220.404 369.112 220.116 369.112 219.756C369.112 219.396 369.112 219.072 369.112 218.748L369.256 218.604ZM363.784 216.66H355.396C355.648 215.76 356.152 215.076 356.944 214.608C357.736 214.14 358.636 213.924 359.68 213.924C360.688 213.924 361.552 214.14 362.308 214.608C363.064 215.076 363.532 215.76 363.712 216.66H363.784ZM388.557 223.32C386.973 223.32 385.713 223.068 384.741 222.528C383.769 221.988 383.049 221.412 382.581 220.764L381.105 225.12C381.501 225.66 381.969 226.164 382.509 226.596C383.049 227.028 383.625 227.388 384.273 227.676C384.921 227.964 385.569 228.18 386.253 228.324C386.937 228.468 387.621 228.54 388.305 228.54C389.421 228.54 390.465 228.396 391.437 228.108C392.409 227.82 393.237 227.424 393.957 226.884C394.677 226.344 395.253 225.696 395.685 224.94C396.117 224.184 396.333 223.32 396.333 222.348C396.333 221.232 396.081 220.332 395.613 219.648C395.145 218.964 394.533 218.424 393.777 218.028C394.245 217.668 394.677 217.164 395.073 216.516C395.469 215.868 395.649 215.148 395.649 214.356C395.649 212.52 395.001 211.116 393.741 210.108C392.481 209.1 390.717 208.596 388.449 208.596C387.729 208.596 387.045 208.668 386.361 208.812C385.677 208.956 385.065 209.172 384.489 209.46C383.913 209.748 383.409 210.072 382.977 210.432C382.545 210.792 382.185 211.152 381.933 211.548L383.121 215.796C383.841 215.112 384.669 214.644 385.605 214.356C386.541 214.068 387.369 213.924 388.125 213.924C388.773 213.924 389.277 214.032 389.673 214.248C390.069 214.464 390.249 214.752 390.249 215.148C390.249 215.616 390.033 215.904 389.601 216.048C389.169 216.192 388.701 216.264 388.233 216.264H386.289V220.908H389.025C389.637 220.908 390.105 221.016 390.429 221.232C390.753 221.448 390.897 221.736 390.897 222.06C390.897 222.888 390.105 223.284 388.557 223.284V223.32ZM410.643 221.16V222.492C410.463 222.852 410.103 223.176 409.599 223.428C409.095 223.68 408.447 223.824 407.691 223.824C406.719 223.824 405.963 223.68 405.423 223.356C404.883 223.032 404.595 222.564 404.595 221.952C404.595 221.412 404.847 220.98 405.351 220.62C405.855 220.26 406.647 220.08 407.727 220.08C408.483 220.08 409.131 220.188 409.671 220.404C410.211 220.62 410.535 220.872 410.643 221.124V221.16ZM400.131 211.764L401.355 216.012C401.895 215.4 402.687 214.896 403.731 214.5C404.775 214.104 405.855 213.888 407.007 213.888C408.015 213.888 408.879 214.104 409.599 214.536C410.319 214.968 410.679 215.688 410.679 216.696V217.2C410.571 217.02 410.211 216.768 409.563 216.444C408.915 216.12 407.907 215.976 406.503 215.976C405.567 215.976 404.667 216.12 403.803 216.408C402.939 216.696 402.147 217.092 401.463 217.596C400.779 218.1 400.239 218.748 399.843 219.54C399.447 220.332 399.231 221.232 399.231 222.24C399.231 223.176 399.411 224.04 399.771 224.796C400.131 225.552 400.599 226.2 401.211 226.74C401.823 227.28 402.507 227.712 403.299 228C404.091 228.288 404.955 228.432 405.855 228.432C406.863 228.432 407.835 228.252 408.771 227.892C409.707 227.532 410.391 226.992 410.859 226.308V227.928H415.971V216.156C415.971 214.932 415.755 213.852 415.359 212.916C414.963 211.98 414.387 211.188 413.667 210.54C412.947 209.892 412.083 209.388 411.075 209.064C410.067 208.74 408.915 208.56 407.655 208.56C406.971 208.56 406.251 208.632 405.495 208.776C404.739 208.92 404.019 209.136 403.335 209.424C402.651 209.712 402.039 210.036 401.499 210.432C400.959 210.828 400.527 211.296 400.203 211.8L400.131 211.764ZM447.978 209.136H430.158V228H435.45V214.68H442.686V228H447.978V209.136ZM458.177 235.668V226.056C458.501 226.74 459.149 227.316 460.121 227.784C461.093 228.252 462.245 228.504 463.613 228.504C464.873 228.504 466.061 228.252 467.213 227.784C468.365 227.316 469.373 226.632 470.237 225.768C471.101 224.904 471.785 223.86 472.289 222.636C472.793 221.412 473.045 220.044 473.045 218.568C473.045 217.092 472.793 215.724 472.289 214.5C471.785 213.276 471.101 212.232 470.237 211.368C469.373 210.504 468.365 209.82 467.213 209.352C466.061 208.884 464.873 208.632 463.613 208.632C462.137 208.632 460.913 208.884 459.941 209.352C458.969 209.82 458.321 210.396 457.997 211.08V209.136H452.885V235.668H458.177ZM458.177 220.764V216.372C458.429 215.76 458.969 215.256 459.797 214.86C460.625 214.464 461.597 214.248 462.677 214.248C464.153 214.248 465.341 214.644 466.277 215.472C467.213 216.3 467.681 217.344 467.681 218.604C467.681 219.864 467.213 220.908 466.277 221.736C465.341 222.564 464.153 222.96 462.677 222.96C461.597 222.96 460.625 222.744 459.797 222.348C458.969 221.952 458.429 221.448 458.177 220.836V220.764ZM485.701 208.596C484.333 208.596 483.037 208.848 481.813 209.352C480.589 209.856 479.509 210.54 478.573 211.404C477.637 212.268 476.881 213.312 476.341 214.536C475.801 215.76 475.513 217.092 475.513 218.532C475.513 219.972 475.801 221.304 476.341 222.528C476.881 223.752 477.637 224.796 478.573 225.66C479.509 226.524 480.589 227.208 481.813 227.712C483.037 228.216 484.333 228.468 485.701 228.468C487.069 228.468 488.365 228.216 489.589 227.712C490.813 227.208 491.893 226.524 492.829 225.66C493.765 224.796 494.521 223.752 495.061 222.528C495.601 221.304 495.889 219.972 495.889 218.532C495.889 217.092 495.601 215.76 495.061 214.536C494.521 213.312 493.765 212.268 492.829 211.404C491.893 210.54 490.813 209.856 489.589 209.352C488.365 208.848 487.069 208.596 485.701 208.596ZM485.701 222.924C485.053 222.924 484.441 222.816 483.865 222.6C483.289 222.384 482.785 222.096 482.353 221.736C481.921 221.376 481.561 220.908 481.309 220.368C481.057 219.828 480.913 219.252 480.913 218.604C480.913 217.956 481.021 217.38 481.273 216.84C481.525 216.3 481.885 215.832 482.317 215.472C482.749 215.112 483.253 214.824 483.829 214.608C484.405 214.392 485.017 214.284 485.665 214.284C486.313 214.284 486.925 214.392 487.501 214.608C488.077 214.824 488.581 215.112 489.013 215.472C489.445 215.832 489.805 216.3 490.057 216.84C490.309 217.38 490.417 217.992 490.417 218.64C490.417 219.288 490.273 219.9 490.021 220.44C489.769 220.98 489.409 221.448 488.977 221.808C488.545 222.168 488.041 222.456 487.465 222.672C486.889 222.888 486.277 222.996 485.629 222.996L485.701 222.924ZM499.57 222.528H497.662V233.004H502.882V228H513.898V233.004H519.046V222.528H516.598V209.136H502.378V210.612C502.378 213.276 502.126 215.616 501.586 217.632C501.046 219.648 500.362 221.304 499.534 222.564L499.57 222.528ZM511.27 222.564H504.97C505.51 221.556 505.942 220.404 506.266 219.108C506.59 217.812 506.842 216.336 507.022 214.644H511.27V222.564ZM532.698 221.16V222.492C532.518 222.852 532.158 223.176 531.654 223.428C531.15 223.68 530.502 223.824 529.746 223.824C528.774 223.824 528.018 223.68 527.478 223.356C526.938 223.032 526.65 222.564 526.65 221.952C526.65 221.412 526.902 220.98 527.406 220.62C527.91 220.26 528.702 220.08 529.782 220.08C530.538 220.08 531.186 220.188 531.726 220.404C532.266 220.62 532.59 220.872 532.698 221.124V221.16ZM522.186 211.764L523.41 216.012C523.95 215.4 524.742 214.896 525.786 214.5C526.83 214.104 527.91 213.888 529.062 213.888C530.07 213.888 530.934 214.104 531.654 214.536C532.374 214.968 532.734 215.688 532.734 216.696V217.2C532.626 217.02 532.266 216.768 531.618 216.444C530.97 216.12 529.962 215.976 528.558 215.976C527.622 215.976 526.722 216.12 525.858 216.408C524.994 216.696 524.202 217.092 523.518 217.596C522.834 218.1 522.294 218.748 521.898 219.54C521.502 220.332 521.286 221.232 521.286 222.24C521.286 223.176 521.466 224.04 521.826 224.796C522.186 225.552 522.654 226.2 523.266 226.74C523.878 227.28 524.562 227.712 525.354 228C526.146 228.288 527.01 228.432 527.91 228.432C528.918 228.432 529.89 228.252 530.826 227.892C531.762 227.532 532.446 226.992 532.914 226.308V227.928H538.026V216.156C538.026 214.932 537.81 213.852 537.414 212.916C537.018 211.98 536.442 211.188 535.722 210.54C535.002 209.892 534.138 209.388 533.13 209.064C532.122 208.74 530.97 208.56 529.71 208.56C529.026 208.56 528.306 208.632 527.55 208.776C526.794 208.92 526.074 209.136 525.39 209.424C524.706 209.712 524.094 210.036 523.554 210.432C523.014 210.828 522.582 211.296 522.258 211.8L522.186 211.764ZM557.642 215.94V209.136H552.35V215.94L547.13 209.136H540.938L547.886 217.92L540.47 228H546.914L552.35 220.368V228H557.642V220.368L563.042 228H569.522L562.142 217.956L569.054 209.136H562.826L557.642 215.94ZM582.372 221.16V222.492C582.192 222.852 581.832 223.176 581.328 223.428C580.824 223.68 580.176 223.824 579.42 223.824C578.448 223.824 577.692 223.68 577.152 223.356C576.612 223.032 576.324 222.564 576.324 221.952C576.324 221.412 576.576 220.98 577.08 220.62C577.584 220.26 578.376 220.08 579.456 220.08C580.212 220.08 580.86 220.188 581.4 220.404C581.94 220.62 582.264 220.872 582.372 221.124V221.16ZM571.86 211.764L573.084 216.012C573.624 215.4 574.416 214.896 575.46 214.5C576.504 214.104 577.584 213.888 578.736 213.888C579.744 213.888 580.608 214.104 581.328 214.536C582.048 214.968 582.408 215.688 582.408 216.696V217.2C582.3 217.02 581.94 216.768 581.292 216.444C580.644 216.12 579.636 215.976 578.232 215.976C577.296 215.976 576.396 216.12 575.532 216.408C574.668 216.696 573.876 217.092 573.192 217.596C572.508 218.1 571.968 218.748 571.572 219.54C571.176 220.332 570.96 221.232 570.96 222.24C570.96 223.176 571.14 224.04 571.5 224.796C571.86 225.552 572.328 226.2 572.94 226.74C573.552 227.28 574.236 227.712 575.028 228C575.82 228.288 576.684 228.432 577.584 228.432C578.592 228.432 579.564 228.252 580.5 227.892C581.436 227.532 582.12 226.992 582.588 226.308V227.928H587.7V216.156C587.7 214.932 587.484 213.852 587.088 212.916C586.692 211.98 586.116 211.188 585.396 210.54C584.676 209.892 583.812 209.388 582.804 209.064C581.796 208.74 580.644 208.56 579.384 208.56C578.7 208.56 577.98 208.632 577.224 208.776C576.468 208.92 575.748 209.136 575.064 209.424C574.38 209.712 573.768 210.036 573.228 210.432C572.688 210.828 572.256 211.296 571.932 211.8L571.86 211.764ZM609.259 209.136L604.147 220.548L599.035 209.136H594.571L591.547 228H596.767L598.207 218.928L602.419 228H606.343L610.483 218.928L611.959 228H617.107L614.083 209.136H609.259ZM626.265 209.136H621.117V228H626.373L634.041 217.668V228H639.225V209.136H633.969L626.265 219.504V209.136ZM653.564 209.136V228H658.856V220.476L665.804 228H672.824L663.716 218.1L672.068 209.136H665.084L658.856 215.868V209.136H653.564ZM682.373 208.596C681.005 208.596 679.709 208.848 678.485 209.352C677.261 209.856 676.181 210.54 675.245 211.404C674.309 212.268 673.553 213.312 673.013 214.536C672.473 215.76 672.185 217.092 672.185 218.532C672.185 219.972 672.473 221.304 673.013 222.528C673.553 223.752 674.309 224.796 675.245 225.66C676.181 226.524 677.261 227.208 678.485 227.712C679.709 228.216 681.005 228.468 682.373 228.468C683.741 228.468 685.037 228.216 686.261 227.712C687.485 227.208 688.565 226.524 689.501 225.66C690.437 224.796 691.193 223.752 691.733 222.528C692.273 221.304 692.561 219.972 692.561 218.532C692.561 217.092 692.273 215.76 691.733 214.536C691.193 213.312 690.437 212.268 689.501 211.404C688.565 210.54 687.485 209.856 686.261 209.352C685.037 208.848 683.741 208.596 682.373 208.596ZM682.373 222.924C681.725 222.924 681.113 222.816 680.537 222.6C679.961 222.384 679.457 222.096 679.025 221.736C678.593 221.376 678.233 220.908 677.981 220.368C677.729 219.828 677.585 219.252 677.585 218.604C677.585 217.956 677.693 217.38 677.945 216.84C678.197 216.3 678.557 215.832 678.989 215.472C679.421 215.112 679.925 214.824 680.501 214.608C681.077 214.392 681.689 214.284 682.337 214.284C682.985 214.284 683.597 214.392 684.173 214.608C684.749 214.824 685.253 215.112 685.685 215.472C686.117 215.832 686.477 216.3 686.729 216.84C686.981 217.38 687.089 217.992 687.089 218.64C687.089 219.288 686.945 219.9 686.693 220.44C686.441 220.98 686.081 221.448 685.649 221.808C685.217 222.168 684.713 222.456 684.137 222.672C683.561 222.888 682.949 222.996 682.301 222.996L682.373 222.924ZM701.533 209.136H696.241V228H701.533V221.088H708.913V228H714.205V209.136H708.913V215.544H701.533V209.136ZM719.109 209.136V228H724.401V220.476L731.349 228H738.369L729.261 218.1L737.613 209.136H730.629L724.401 215.868V209.136H719.109ZM738.273 209.136L745.653 226.488L741.729 235.668H747.489L758.793 209.136H752.961L748.461 219.72L743.961 209.136H738.273ZM767.043 235.668V226.056C767.367 226.74 768.015 227.316 768.987 227.784C769.959 228.252 771.111 228.504 772.479 228.504C773.739 228.504 774.927 228.252 776.079 227.784C777.231 227.316 778.239 226.632 779.103 225.768C779.967 224.904 780.651 223.86 781.155 222.636C781.659 221.412 781.911 220.044 781.911 218.568C781.911 217.092 781.659 215.724 781.155 214.5C780.651 213.276 779.967 212.232 779.103 211.368C778.239 210.504 777.231 209.82 776.079 209.352C774.927 208.884 773.739 208.632 772.479 208.632C771.003 208.632 769.779 208.884 768.807 209.352C767.835 209.82 767.187 210.396 766.863 211.08V209.136H761.751V235.668H767.043ZM767.043 220.764V216.372C767.295 215.76 767.835 215.256 768.663 214.86C769.491 214.464 770.463 214.248 771.543 214.248C773.019 214.248 774.207 214.644 775.143 215.472C776.079 216.3 776.547 217.344 776.547 218.604C776.547 219.864 776.079 220.908 775.143 221.736C774.207 222.564 773.019 222.96 771.543 222.96C770.463 222.96 769.491 222.744 768.663 222.348C767.835 221.952 767.295 221.448 767.043 220.836V220.764ZM803.64 218.604C803.64 217.272 803.424 216.012 802.992 214.824C802.56 213.636 801.912 212.592 801.084 211.656C800.256 210.72 799.248 210 798.096 209.46C796.944 208.92 795.648 208.632 794.244 208.632C792.732 208.632 791.364 208.92 790.14 209.46C788.916 210 787.872 210.72 787.008 211.62C786.144 212.52 785.496 213.6 785.028 214.824C784.56 216.048 784.344 217.344 784.344 218.676C784.344 220.224 784.596 221.592 785.136 222.816C785.676 224.04 786.396 225.084 787.296 225.948C788.196 226.812 789.276 227.46 790.536 227.928C791.796 228.396 793.128 228.612 794.568 228.612C796.296 228.612 797.808 228.324 799.14 227.712C800.472 227.1 801.48 226.272 802.164 225.228L800.472 221.16C799.932 221.916 799.104 222.492 798.024 222.888C796.944 223.284 795.828 223.5 794.676 223.5C793.416 223.5 792.336 223.284 791.436 222.816C790.536 222.348 789.96 221.628 789.708 220.62H803.424C803.46 220.404 803.496 220.116 803.496 219.756C803.496 219.396 803.496 219.072 803.496 218.748L803.64 218.604ZM798.168 216.66H789.78C790.032 215.76 790.536 215.076 791.328 214.608C792.12 214.14 793.02 213.924 794.064 213.924C795.072 213.924 795.936 214.14 796.692 214.608C797.448 215.076 797.916 215.76 798.096 216.66H798.168ZM812.674 209.136H807.382V228H812.674V221.088H820.054V228H825.346V209.136H820.054V215.544H812.674V209.136ZM844.974 214.608V209.136H828.594V214.608H834.138V228H839.43V214.608H844.974ZM857.23 208.596C855.862 208.596 854.566 208.848 853.342 209.352C852.118 209.856 851.038 210.54 850.102 211.404C849.166 212.268 848.41 213.312 847.87 214.536C847.33 215.76 847.042 217.092 847.042 218.532C847.042 219.972 847.33 221.304 847.87 222.528C848.41 223.752 849.166 224.796 850.102 225.66C851.038 226.524 852.118 227.208 853.342 227.712C854.566 228.216 855.862 228.468 857.23 228.468C858.598 228.468 859.894 228.216 861.118 227.712C862.342 227.208 863.422 226.524 864.358 225.66C865.294 224.796 866.05 223.752 866.59 222.528C867.13 221.304 867.418 219.972 867.418 218.532C867.418 217.092 867.13 215.76 866.59 214.536C866.05 213.312 865.294 212.268 864.358 211.404C863.422 210.54 862.342 209.856 861.118 209.352C859.894 208.848 858.598 208.596 857.23 208.596ZM857.23 222.924C856.582 222.924 855.97 222.816 855.394 222.6C854.818 222.384 854.314 222.096 853.882 221.736C853.45 221.376 853.09 220.908 852.838 220.368C852.586 219.828 852.442 219.252 852.442 218.604C852.442 217.956 852.55 217.38 852.802 216.84C853.054 216.3 853.414 215.832 853.846 215.472C854.278 215.112 854.782 214.824 855.358 214.608C855.934 214.392 856.546 214.284 857.194 214.284C857.842 214.284 858.454 214.392 859.03 214.608C859.606 214.824 860.11 215.112 860.542 215.472C860.974 215.832 861.334 216.3 861.586 216.84C861.838 217.38 861.946 217.992 861.946 218.64C861.946 219.288 861.802 219.9 861.55 220.44C861.298 220.98 860.938 221.448 860.506 221.808C860.074 222.168 859.57 222.456 858.994 222.672C858.418 222.888 857.806 222.996 857.158 222.996L857.23 222.924ZM878.371 209.136H871.099V228H879.343C880.279 228 881.179 227.892 882.043 227.64C882.907 227.388 883.663 227.028 884.311 226.524C884.959 226.02 885.499 225.408 885.895 224.652C886.291 223.896 886.471 223.032 886.471 222.06C886.471 221.016 886.219 220.152 885.751 219.468C885.283 218.784 884.743 218.208 884.131 217.74C884.491 217.344 884.779 216.912 885.031 216.48C885.283 216.048 885.391 215.436 885.391 214.68C885.391 213.708 885.211 212.88 884.851 212.16C884.491 211.44 883.987 210.864 883.339 210.432C882.691 210 881.935 209.676 881.071 209.46C880.207 209.244 879.307 209.136 878.335 209.136H878.371ZM879.919 223.284H876.067V220.476H879.883C880.387 220.476 880.747 220.62 880.999 220.944C881.251 221.268 881.359 221.592 881.359 221.916C881.359 222.312 881.215 222.636 880.927 222.888C880.639 223.14 880.279 223.284 879.883 223.284H879.919ZM878.767 216.588H876.031V213.852H878.731C879.307 213.852 879.703 213.996 879.955 214.284C880.207 214.572 880.315 214.896 880.315 215.22C880.315 215.58 880.171 215.904 879.919 216.192C879.667 216.48 879.271 216.624 878.731 216.624L878.767 216.588ZM904.865 209.136H899.573V228H904.865V221.088H912.245V228H917.537V209.136H912.245V215.544H904.865V209.136ZM932.701 221.16V222.492C932.521 222.852 932.161 223.176 931.657 223.428C931.153 223.68 930.505 223.824 929.749 223.824C928.777 223.824 928.021 223.68 927.481 223.356C926.941 223.032 926.653 222.564 926.653 221.952C926.653 221.412 926.905 220.98 927.409 220.62C927.913 220.26 928.705 220.08 929.785 220.08C930.541 220.08 931.189 220.188 931.729 220.404C932.269 220.62 932.593 220.872 932.701 221.124V221.16ZM922.189 211.764L923.413 216.012C923.953 215.4 924.745 214.896 925.789 214.5C926.833 214.104 927.913 213.888 929.065 213.888C930.073 213.888 930.937 214.104 931.657 214.536C932.377 214.968 932.737 215.688 932.737 216.696V217.2C932.629 217.02 932.269 216.768 931.621 216.444C930.973 216.12 929.965 215.976 928.561 215.976C927.625 215.976 926.725 216.12 925.861 216.408C924.997 216.696 924.205 217.092 923.521 217.596C922.837 218.1 922.297 218.748 921.901 219.54C921.505 220.332 921.289 221.232 921.289 222.24C921.289 223.176 921.469 224.04 921.829 224.796C922.189 225.552 922.657 226.2 923.269 226.74C923.881 227.28 924.565 227.712 925.357 228C926.149 228.288 927.013 228.432 927.913 228.432C928.921 228.432 929.893 228.252 930.829 227.892C931.765 227.532 932.449 226.992 932.917 226.308V227.928H938.029V216.156C938.029 214.932 937.813 213.852 937.417 212.916C937.021 211.98 936.445 211.188 935.725 210.54C935.005 209.892 934.141 209.388 933.133 209.064C932.125 208.74 930.973 208.56 929.713 208.56C929.029 208.56 928.309 208.632 927.553 208.776C926.797 208.92 926.077 209.136 925.393 209.424C924.709 209.712 924.097 210.036 923.557 210.432C923.017 210.828 922.585 211.296 922.261 211.8L922.189 211.764ZM276.021 263.136H270.873V282H276.129L283.797 271.668V282H288.981V263.136H283.725L276.021 273.504V263.136ZM454.232 263.136H436.412V282H441.704V268.68H448.94V282H454.232V263.136ZM464.431 289.668V280.056C464.755 280.74 465.403 281.316 466.375 281.784C467.347 282.252 468.499 282.504 469.867 282.504C471.127 282.504 472.315 282.252 473.467 281.784C474.619 281.316 475.627 280.632 476.491 279.768C477.355 278.904 478.039 277.86 478.543 276.636C479.047 275.412 479.299 274.044 479.299 272.568C479.299 271.092 479.047 269.724 478.543 268.5C478.039 267.276 477.355 266.232 476.491 265.368C475.627 264.504 474.619 263.82 473.467 263.352C472.315 262.884 471.127 262.632 469.867 262.632C468.391 262.632 467.167 262.884 466.195 263.352C465.223 263.82 464.575 264.396 464.251 265.08V263.136H459.139V289.668H464.431ZM464.431 274.764V270.372C464.683 269.76 465.223 269.256 466.051 268.86C466.879 268.464 467.851 268.248 468.931 268.248C470.407 268.248 471.595 268.644 472.531 269.472C473.467 270.3 473.935 271.344 473.935 272.604C473.935 273.864 473.467 274.908 472.531 275.736C471.595 276.564 470.407 276.96 468.931 276.96C467.851 276.96 466.879 276.744 466.051 276.348C465.223 275.952 464.683 275.448 464.431 274.836V274.764ZM488.14 263.136H482.992V282H488.248L495.916 271.668V282H501.1V263.136H495.844L488.14 273.504V263.136ZM533.259 263.136H515.439V282H520.731V268.68H527.967V282H533.259V263.136ZM547.13 262.596C545.762 262.596 544.466 262.848 543.242 263.352C542.018 263.856 540.938 264.54 540.002 265.404C539.066 266.268 538.31 267.312 537.77 268.536C537.23 269.76 536.942 271.092 536.942 272.532C536.942 273.972 537.23 275.304 537.77 276.528C538.31 277.752 539.066 278.796 540.002 279.66C540.938 280.524 542.018 281.208 543.242 281.712C544.466 282.216 545.762 282.468 547.13 282.468C548.498 282.468 549.794 282.216 551.018 281.712C552.242 281.208 553.322 280.524 554.258 279.66C555.194 278.796 555.95 277.752 556.49 276.528C557.03 275.304 557.318 273.972 557.318 272.532C557.318 271.092 557.03 269.76 556.49 268.536C555.95 267.312 555.194 266.268 554.258 265.404C553.322 264.54 552.242 263.856 551.018 263.352C549.794 262.848 548.498 262.596 547.13 262.596ZM547.13 276.924C546.482 276.924 545.87 276.816 545.294 276.6C544.718 276.384 544.214 276.096 543.782 275.736C543.35 275.376 542.99 274.908 542.738 274.368C542.486 273.828 542.342 273.252 542.342 272.604C542.342 271.956 542.45 271.38 542.702 270.84C542.954 270.3 543.314 269.832 543.746 269.472C544.178 269.112 544.682 268.824 545.258 268.608C545.834 268.392 546.446 268.284 547.094 268.284C547.742 268.284 548.354 268.392 548.93 268.608C549.506 268.824 550.01 269.112 550.442 269.472C550.874 269.832 551.234 270.3 551.486 270.84C551.738 271.38 551.846 271.992 551.846 272.64C551.846 273.288 551.702 273.9 551.45 274.44C551.198 274.98 550.838 275.448 550.406 275.808C549.974 276.168 549.47 276.456 548.894 276.672C548.318 276.888 547.706 276.996 547.058 276.996L547.13 276.924ZM577.775 263.136L572.663 274.548L567.551 263.136H563.087L560.063 282H565.283L566.723 272.928L570.935 282H574.859L578.999 272.928L580.475 282H585.623L582.599 263.136H577.775ZM598.596 262.596C597.228 262.596 595.932 262.848 594.708 263.352C593.484 263.856 592.404 264.54 591.468 265.404C590.532 266.268 589.776 267.312 589.236 268.536C588.696 269.76 588.408 271.092 588.408 272.532C588.408 273.972 588.696 275.304 589.236 276.528C589.776 277.752 590.532 278.796 591.468 279.66C592.404 280.524 593.484 281.208 594.708 281.712C595.932 282.216 597.228 282.468 598.596 282.468C599.964 282.468 601.26 282.216 602.484 281.712C603.708 281.208 604.788 280.524 605.724 279.66C606.66 278.796 607.416 277.752 607.956 276.528C608.496 275.304 608.784 273.972 608.784 272.532C608.784 271.092 608.496 269.76 607.956 268.536C607.416 267.312 606.66 266.268 605.724 265.404C604.788 264.54 603.708 263.856 602.484 263.352C601.26 262.848 599.964 262.596 598.596 262.596ZM598.596 276.924C597.948 276.924 597.336 276.816 596.76 276.6C596.184 276.384 595.68 276.096 595.248 275.736C594.816 275.376 594.456 274.908 594.204 274.368C593.952 273.828 593.808 273.252 593.808 272.604C593.808 271.956 593.916 271.38 594.168 270.84C594.42 270.3 594.78 269.832 595.212 269.472C595.644 269.112 596.148 268.824 596.724 268.608C597.3 268.392 597.912 268.284 598.56 268.284C599.208 268.284 599.82 268.392 600.396 268.608C600.972 268.824 601.476 269.112 601.908 269.472C602.34 269.832 602.7 270.3 602.952 270.84C603.204 271.38 603.312 271.992 603.312 272.64C603.312 273.288 603.168 273.9 602.916 274.44C602.664 274.98 602.304 275.448 601.872 275.808C601.44 276.168 600.936 276.456 600.36 276.672C599.784 276.888 599.172 276.996 598.524 276.996L598.596 276.924ZM640.329 276.456H637.881V263.136H632.589V276.456H627.801V263.136H622.509V276.456H617.757V263.136H612.465V282H635.181V287.004H640.329V276.456ZM648.883 263.136H643.735V282H648.991L656.659 271.668V282H661.843V263.136H656.587L648.883 273.504V263.136ZM694.002 263.136H676.182V282H681.474V268.68H688.71V282H694.002V263.136ZM696.678 277.032L697.578 281.82C697.758 281.928 698.046 282 698.442 282.072C698.838 282.144 699.234 282.18 699.63 282.18C700.602 282.18 701.466 281.964 702.222 281.532C702.978 281.1 703.626 280.416 704.166 279.444C704.706 278.472 705.138 277.248 705.462 275.736C705.786 274.224 706.002 272.388 706.11 270.264L706.182 268.752H710.862V282.072H716.118V263.208H701.358L701.322 265.152C701.286 267.06 701.214 268.68 701.106 270.012C700.998 271.344 700.854 272.46 700.674 273.36C700.494 274.26 700.278 274.944 700.026 275.448C699.774 275.952 699.486 276.312 699.162 276.564C698.838 276.816 698.478 276.96 698.082 277.032C697.686 277.104 697.254 277.14 696.786 277.176L696.678 277.032ZM731.335 275.16V276.492C731.155 276.852 730.795 277.176 730.291 277.428C729.787 277.68 729.139 277.824 728.383 277.824C727.411 277.824 726.655 277.68 726.115 277.356C725.575 277.032 725.287 276.564 725.287 275.952C725.287 275.412 725.539 274.98 726.043 274.62C726.547 274.26 727.339 274.08 728.419 274.08C729.175 274.08 729.823 274.188 730.363 274.404C730.903 274.62 731.227 274.872 731.335 275.124V275.16ZM720.823 265.764L722.047 270.012C722.587 269.4 723.379 268.896 724.423 268.5C725.467 268.104 726.547 267.888 727.699 267.888C728.707 267.888 729.571 268.104 730.291 268.536C731.011 268.968 731.371 269.688 731.371 270.696V271.2C731.263 271.02 730.903 270.768 730.255 270.444C729.607 270.12 728.599 269.976 727.195 269.976C726.259 269.976 725.359 270.12 724.495 270.408C723.631 270.696 722.839 271.092 722.155 271.596C721.471 272.1 720.931 272.748 720.535 273.54C720.139 274.332 719.923 275.232 719.923 276.24C719.923 277.176 720.103 278.04 720.463 278.796C720.823 279.552 721.291 280.2 721.903 280.74C722.515 281.28 723.199 281.712 723.991 282C724.783 282.288 725.647 282.432 726.547 282.432C727.555 282.432 728.527 282.252 729.463 281.892C730.399 281.532 731.083 280.992 731.551 280.308V281.928H736.663V270.156C736.663 268.932 736.447 267.852 736.051 266.916C735.655 265.98 735.079 265.188 734.359 264.54C733.639 263.892 732.775 263.388 731.767 263.064C730.759 262.74 729.607 262.56 728.347 262.56C727.663 262.56 726.943 262.632 726.187 262.776C725.431 262.92 724.711 263.136 724.027 263.424C723.343 263.712 722.731 264.036 722.191 264.432C721.651 264.828 721.219 265.296 720.895 265.8L720.823 265.764ZM755.889 268.608V263.136H739.509V268.608H745.053V282H750.345V268.608H755.889ZM772.934 289.668V282.324C774.302 282.252 775.562 282 776.75 281.532C777.938 281.064 778.946 280.416 779.81 279.588C780.674 278.76 781.358 277.752 781.862 276.6C782.366 275.448 782.618 274.116 782.618 272.64C782.618 271.164 782.366 269.832 781.898 268.644C781.43 267.456 780.782 266.448 779.918 265.62C779.054 264.792 778.046 264.144 776.858 263.676C775.67 263.208 774.338 262.956 772.898 262.884V255.9H767.606V262.884C766.166 262.956 764.834 263.244 763.646 263.712C762.458 264.18 761.45 264.828 760.586 265.656C759.722 266.484 759.074 267.492 758.606 268.68C758.138 269.868 757.886 271.2 757.886 272.676C757.886 274.152 758.138 275.484 758.642 276.636C759.146 277.788 759.83 278.796 760.694 279.624C761.558 280.452 762.566 281.1 763.754 281.568C764.942 282.036 766.202 282.324 767.57 282.396V289.74L772.934 289.668ZM763.25 272.676C763.25 271.452 763.61 270.444 764.366 269.616C765.122 268.788 766.202 268.392 767.606 268.392V276.852C766.202 276.852 765.122 276.492 764.366 275.736C763.61 274.98 763.25 273.972 763.25 272.676ZM777.182 272.676C777.182 273.972 776.822 274.98 776.066 275.736C775.31 276.492 774.23 276.852 772.826 276.852V268.392C774.23 268.392 775.31 268.788 776.066 269.616C776.822 270.444 777.182 271.452 777.182 272.676ZM795.267 262.596C793.899 262.596 792.603 262.848 791.379 263.352C790.155 263.856 789.075 264.54 788.139 265.404C787.203 266.268 786.447 267.312 785.907 268.536C785.367 269.76 785.079 271.092 785.079 272.532C785.079 273.972 785.367 275.304 785.907 276.528C786.447 277.752 787.203 278.796 788.139 279.66C789.075 280.524 790.155 281.208 791.379 281.712C792.603 282.216 793.899 282.468 795.267 282.468C796.635 282.468 797.931 282.216 799.155 281.712C800.379 281.208 801.459 280.524 802.395 279.66C803.331 278.796 804.087 277.752 804.627 276.528C805.167 275.304 805.455 273.972 805.455 272.532C805.455 271.092 805.167 269.76 804.627 268.536C804.087 267.312 803.331 266.268 802.395 265.404C801.459 264.54 800.379 263.856 799.155 263.352C797.931 262.848 796.635 262.596 795.267 262.596ZM795.267 276.924C794.619 276.924 794.007 276.816 793.431 276.6C792.855 276.384 792.351 276.096 791.919 275.736C791.487 275.376 791.127 274.908 790.875 274.368C790.623 273.828 790.479 273.252 790.479 272.604C790.479 271.956 790.587 271.38 790.839 270.84C791.091 270.3 791.451 269.832 791.883 269.472C792.315 269.112 792.819 268.824 793.395 268.608C793.971 268.392 794.583 268.284 795.231 268.284C795.879 268.284 796.491 268.392 797.067 268.608C797.643 268.824 798.147 269.112 798.579 269.472C799.011 269.832 799.371 270.3 799.623 270.84C799.875 271.38 799.983 271.992 799.983 272.64C799.983 273.288 799.839 273.9 799.587 274.44C799.335 274.98 798.975 275.448 798.543 275.808C798.111 276.168 797.607 276.456 797.031 276.672C796.455 276.888 795.843 276.996 795.195 276.996L795.267 276.924ZM814.428 289.668V280.056C814.752 280.74 815.4 281.316 816.372 281.784C817.344 282.252 818.496 282.504 819.864 282.504C821.124 282.504 822.312 282.252 823.464 281.784C824.616 281.316 825.624 280.632 826.488 279.768C827.352 278.904 828.036 277.86 828.54 276.636C829.044 275.412 829.296 274.044 829.296 272.568C829.296 271.092 829.044 269.724 828.54 268.5C828.036 267.276 827.352 266.232 826.488 265.368C825.624 264.504 824.616 263.82 823.464 263.352C822.312 262.884 821.124 262.632 819.864 262.632C818.388 262.632 817.164 262.884 816.192 263.352C815.22 263.82 814.572 264.396 814.248 265.08V263.136H809.136V289.668H814.428ZM814.428 274.764V270.372C814.68 269.76 815.22 269.256 816.048 268.86C816.876 268.464 817.848 268.248 818.928 268.248C820.404 268.248 821.592 268.644 822.528 269.472C823.464 270.3 823.932 271.344 823.932 272.604C823.932 273.864 823.464 274.908 822.528 275.736C821.592 276.564 820.404 276.96 818.928 276.96C817.848 276.96 816.876 276.744 816.048 276.348C815.22 275.952 814.68 275.448 814.428 274.836V274.764ZM849.765 263.136L844.653 274.548L839.541 263.136H835.077L832.053 282H837.273L838.713 272.928L842.925 282H846.849L850.989 272.928L852.465 282H857.613L854.589 263.136H849.765ZM879.478 263.136V282H884.77V263.136H879.478ZM861.622 282H869.326C870.37 282 871.342 281.856 872.242 281.568C873.142 281.28 873.898 280.848 874.546 280.272C875.194 279.696 875.698 278.976 876.058 278.112C876.418 277.248 876.598 276.276 876.598 275.16C876.598 274.044 876.418 273.072 876.058 272.208C875.698 271.344 875.194 270.624 874.546 270.048C873.898 269.472 873.142 269.04 872.242 268.716C871.342 268.392 870.37 268.248 869.29 268.248H866.842V263.28H861.55L861.622 282ZM869.362 277.032H866.842V273.36H869.362C869.974 273.36 870.478 273.54 870.874 273.864C871.27 274.188 871.45 274.62 871.45 275.16C871.45 275.664 871.27 276.096 870.91 276.456C870.55 276.816 870.046 276.996 869.398 276.996L869.362 277.032ZM920.543 271.488L916.115 256.152H911.291L906.863 271.488L901.679 256.152H895.811L904.379 282H909.239L913.847 266.088L918.383 282H923.207L931.775 256.152H925.691L920.543 271.488ZM950.793 272.604C950.793 271.272 950.577 270.012 950.145 268.824C949.713 267.636 949.065 266.592 948.237 265.656C947.409 264.72 946.401 264 945.249 263.46C944.097 262.92 942.801 262.632 941.397 262.632C939.885 262.632 938.517 262.92 937.293 263.46C936.069 264 935.025 264.72 934.161 265.62C933.297 266.52 932.649 267.6 932.181 268.824C931.713 270.048 931.497 271.344 931.497 272.676C931.497 274.224 931.749 275.592 932.289 276.816C932.829 278.04 933.549 279.084 934.449 279.948C935.349 280.812 936.429 281.46 937.689 281.928C938.949 282.396 940.281 282.612 941.721 282.612C943.449 282.612 944.961 282.324 946.293 281.712C947.625 281.1 948.633 280.272 949.317 279.228L947.625 275.16C947.085 275.916 946.257 276.492 945.177 276.888C944.097 277.284 942.981 277.5 941.829 277.5C940.569 277.5 939.489 277.284 938.589 276.816C937.689 276.348 937.113 275.628 936.861 274.62H950.577C950.613 274.404 950.649 274.116 950.649 273.756C950.649 273.396 950.649 273.072 950.649 272.748L950.793 272.604ZM945.321 270.66H936.933C937.185 269.76 937.689 269.076 938.481 268.608C939.273 268.14 940.173 267.924 941.217 267.924C942.225 267.924 943.089 268.14 943.845 268.608C944.601 269.076 945.069 269.76 945.249 270.66H945.321ZM963.643 276.924C962.131 276.924 960.907 276.528 960.007 275.736C959.107 274.944 958.639 273.9 958.639 272.604C958.639 271.308 959.071 270.264 959.971 269.472C960.871 268.68 962.059 268.284 963.571 268.284C964.795 268.284 965.839 268.536 966.703 269.004C967.567 269.472 968.215 270.012 968.683 270.624L970.231 266.124C969.619 265.188 968.683 264.396 967.423 263.712C966.163 263.028 964.723 262.704 963.067 262.704C961.735 262.704 960.475 262.956 959.287 263.424C958.099 263.892 957.055 264.576 956.155 265.476C955.255 266.376 954.535 267.42 953.995 268.644C953.455 269.868 953.203 271.2 953.203 272.676C953.203 274.152 953.455 275.52 953.995 276.744C954.535 277.968 955.255 279.012 956.155 279.912C957.055 280.812 958.099 281.496 959.287 281.964C960.475 282.432 961.735 282.684 963.067 282.684C964.723 282.684 966.199 282.36 967.495 281.712C968.791 281.064 969.763 280.272 970.411 279.3L968.755 274.692C968.251 275.304 967.567 275.844 966.703 276.348C965.839 276.852 964.795 277.104 963.571 277.104L963.643 276.924ZM979.461 282V270.732C979.569 270.012 980.001 269.4 980.721 268.932C981.441 268.464 982.269 268.212 983.169 268.212C984.213 268.212 985.077 268.536 985.761 269.184C986.445 269.832 986.805 270.768 986.805 271.992V281.964H992.097V270.84C992.097 269.4 991.845 268.176 991.377 267.132C990.909 266.088 990.297 265.224 989.541 264.54C988.785 263.856 987.957 263.352 987.021 263.028C986.085 262.704 985.149 262.56 984.177 262.56C982.845 262.56 981.765 262.776 980.973 263.208C980.181 263.64 979.641 264.216 979.389 264.9V255.72H974.097V281.928L979.461 282ZM1014.79 272.604C1014.79 271.272 1014.58 270.012 1014.14 268.824C1013.71 267.636 1013.06 266.592 1012.24 265.656C1011.41 264.72 1010.4 264 1009.25 263.46C1008.1 262.92 1006.8 262.632 1005.4 262.632C1003.88 262.632 1002.52 262.92 1001.29 263.46C1000.07 264 999.024 264.72 998.16 265.62C997.296 266.52 996.648 267.6 996.18 268.824C995.712 270.048 995.496 271.344 995.496 272.676C995.496 274.224 995.748 275.592 996.288 276.816C996.828 278.04 997.548 279.084 998.448 279.948C999.348 280.812 1000.43 281.46 1001.69 281.928C1002.95 282.396 1004.28 282.612 1005.72 282.612C1007.45 282.612 1008.96 282.324 1010.29 281.712C1011.62 281.1 1012.63 280.272 1013.32 279.228L1011.62 275.16C1011.08 275.916 1010.26 276.492 1009.18 276.888C1008.1 277.284 1006.98 277.5 1005.83 277.5C1004.57 277.5 1003.49 277.284 1002.59 276.816C1001.69 276.348 1001.11 275.628 1000.86 274.62H1014.58C1014.61 274.404 1014.65 274.116 1014.65 273.756C1014.65 273.396 1014.65 273.072 1014.65 272.748L1014.79 272.604ZM1009.32 270.66H1000.93C1001.18 269.76 1001.69 269.076 1002.48 268.608C1003.27 268.14 1004.17 267.924 1005.22 267.924C1006.22 267.924 1007.09 268.14 1007.84 268.608C1008.6 269.076 1009.07 269.76 1009.25 270.66H1009.32ZM1027.64 276.924C1026.13 276.924 1024.91 276.528 1024.01 275.736C1023.11 274.944 1022.64 273.9 1022.64 272.604C1022.64 271.308 1023.07 270.264 1023.97 269.472C1024.87 268.68 1026.06 268.284 1027.57 268.284C1028.79 268.284 1029.84 268.536 1030.7 269.004C1031.57 269.472 1032.21 270.012 1032.68 270.624L1034.23 266.124C1033.62 265.188 1032.68 264.396 1031.42 263.712C1030.16 263.028 1028.72 262.704 1027.07 262.704C1025.73 262.704 1024.47 262.956 1023.29 263.424C1022.1 263.892 1021.05 264.576 1020.15 265.476C1019.25 266.376 1018.53 267.42 1017.99 268.644C1017.45 269.868 1017.2 271.2 1017.2 272.676C1017.2 274.152 1017.45 275.52 1017.99 276.744C1018.53 277.968 1019.25 279.012 1020.15 279.912C1021.05 280.812 1022.1 281.496 1023.29 281.964C1024.47 282.432 1025.73 282.684 1027.07 282.684C1028.72 282.684 1030.2 282.36 1031.49 281.712C1032.79 281.064 1033.76 280.272 1034.41 279.3L1032.75 274.692C1032.25 275.304 1031.57 275.844 1030.7 276.348C1029.84 276.852 1028.79 277.104 1027.57 277.104L1027.64 276.924ZM1038.17 255.792V282H1043.46V274.404L1050.41 282H1057.43L1048.32 272.028L1056.6 263.136H1049.65L1043.46 269.796V255.792H1038.17Z" fill="#333D37"/>
<path d="M1030.1 201.612C1028.26 201.612 1026.53 201.936 1024.88 202.584C1023.22 203.232 1021.78 204.168 1020.56 205.356C1019.33 206.544 1018.36 207.984 1017.64 209.64C1016.92 211.296 1016.56 213.096 1016.56 215.076C1016.56 217.056 1016.92 218.892 1017.64 220.548C1018.36 222.204 1019.33 223.608 1020.56 224.796C1021.78 225.984 1023.22 226.92 1024.88 227.568C1026.53 228.216 1028.26 228.54 1030.1 228.54C1031.93 228.54 1033.66 228.216 1035.32 227.568C1036.97 226.92 1038.41 225.984 1039.64 224.796C1040.86 223.608 1041.83 222.204 1042.55 220.548C1043.27 218.892 1043.63 217.092 1043.63 215.112C1043.63 213.132 1043.27 211.332 1042.55 209.676C1041.83 208.02 1040.86 206.616 1039.64 205.428C1038.41 204.24 1036.97 203.304 1035.32 202.656C1033.66 202.008 1031.93 201.684 1030.1 201.684V201.612ZM1030.1 222.708C1028.98 222.708 1027.94 222.528 1026.97 222.168C1025.99 221.808 1025.17 221.304 1024.45 220.656C1023.73 220.008 1023.15 219.216 1022.75 218.28C1022.36 217.344 1022.14 216.336 1022.14 215.22C1022.14 214.104 1022.36 213.096 1022.75 212.16C1023.15 211.224 1023.69 210.432 1024.41 209.784C1025.13 209.136 1025.96 208.632 1026.93 208.272C1027.9 207.912 1028.95 207.732 1030.06 207.732C1031.18 207.732 1032.22 207.912 1033.19 208.272C1034.17 208.632 1034.99 209.136 1035.71 209.784C1036.43 210.432 1036.97 211.224 1037.37 212.16C1037.77 213.096 1037.98 214.104 1037.98 215.22C1037.98 216.336 1037.77 217.38 1037.37 218.316C1036.97 219.252 1036.4 220.044 1035.68 220.692C1034.96 221.34 1034.13 221.844 1033.16 222.204C1032.19 222.564 1031.14 222.744 1030.03 222.744L1030.1 222.708ZM1046.01 202.152V208.056H1054.36L1045.9 223.464V228H1061.17V222.096H1052.67L1061.1 206.832V202.152H1046.01ZM1076.99 201.612C1075.16 201.612 1073.43 201.936 1071.77 202.584C1070.12 203.232 1068.68 204.168 1067.45 205.356C1066.23 206.544 1065.26 207.984 1064.54 209.64C1063.82 211.296 1063.46 213.096 1063.46 215.076C1063.46 217.056 1063.82 218.892 1064.54 220.548C1065.26 222.204 1066.23 223.608 1067.45 224.796C1068.68 225.984 1070.12 226.92 1071.77 227.568C1073.43 228.216 1075.16 228.54 1076.99 228.54C1078.83 228.54 1080.56 228.216 1082.21 227.568C1083.87 226.92 1085.31 225.984 1086.53 224.796C1087.76 223.608 1088.73 222.204 1089.45 220.548C1090.17 218.892 1090.53 217.092 1090.53 215.112C1090.53 213.132 1090.17 211.332 1089.45 209.676C1088.73 208.02 1087.76 206.616 1086.53 205.428C1085.31 204.24 1083.87 203.304 1082.21 202.656C1080.56 202.008 1078.83 201.684 1076.99 201.684V201.612ZM1076.99 222.708C1075.88 222.708 1074.83 222.528 1073.86 222.168C1072.89 221.808 1072.06 221.304 1071.34 220.656C1070.62 220.008 1070.05 219.216 1069.65 218.28C1069.25 217.344 1069.04 216.336 1069.04 215.22C1069.04 214.104 1069.25 213.096 1069.65 212.16C1070.05 211.224 1070.59 210.432 1071.31 209.784C1072.03 209.136 1072.85 208.632 1073.83 208.272C1074.8 207.912 1075.84 207.732 1076.96 207.732C1078.07 207.732 1079.12 207.912 1080.09 208.272C1081.06 208.632 1081.89 209.136 1082.61 209.784C1083.33 210.432 1083.87 211.224 1084.27 212.16C1084.66 213.096 1084.88 214.104 1084.88 215.22C1084.88 216.336 1084.66 217.38 1084.27 218.316C1083.87 219.252 1083.29 220.044 1082.57 220.692C1081.85 221.34 1081.03 221.844 1080.05 222.204C1079.08 222.564 1078.04 222.744 1076.92 222.744L1076.99 222.708ZM1094.35 202.152V228H1099.82V212.088L1110.8 228H1116.16V202.152H1110.69V218.172L1099.64 202.152H1094.35ZM325.856 271.488L321.428 256.152H316.604L312.176 271.488L306.992 256.152H301.124L309.692 282H314.552L319.16 266.088L323.696 282H328.52L337.088 256.152H331.004L325.856 271.488ZM339.972 263.136V282H345.264V263.136H339.972ZM339.18 257.628C339.18 258.6 339.504 259.428 340.152 260.076C340.8 260.724 341.592 261.048 342.564 261.048C343.536 261.048 344.364 260.724 345.048 260.076C345.732 259.428 346.056 258.636 346.056 257.664C346.056 256.692 345.732 255.864 345.048 255.18C344.364 254.496 343.536 254.172 342.564 254.172C341.592 254.172 340.764 254.496 340.116 255.18C339.468 255.864 339.144 256.692 339.144 257.664L339.18 257.628ZM350.286 255.792V282H355.578V255.792H350.286ZM374.142 255.792V265.08C373.818 264.396 373.17 263.82 372.198 263.352C371.226 262.884 370.074 262.632 368.706 262.632C367.446 262.632 366.258 262.884 365.106 263.352C363.954 263.82 362.946 264.504 362.082 265.368C361.218 266.232 360.534 267.276 360.03 268.5C359.526 269.724 359.274 271.092 359.274 272.568C359.274 274.044 359.526 275.412 360.03 276.636C360.534 277.86 361.218 278.904 362.082 279.768C362.946 280.632 363.954 281.316 365.106 281.784C366.258 282.252 367.446 282.504 368.706 282.504C370.182 282.504 371.406 282.252 372.378 281.784C373.35 281.316 373.998 280.74 374.322 280.056V282H379.434V255.792H374.142ZM374.142 270.372V274.764C373.89 275.376 373.35 275.88 372.522 276.276C371.694 276.672 370.722 276.888 369.642 276.888C368.166 276.888 366.978 276.492 366.042 275.664C365.106 274.836 364.638 273.792 364.638 272.532C364.638 271.272 365.106 270.228 366.042 269.4C366.978 268.572 368.166 268.176 369.642 268.176C370.722 268.176 371.694 268.392 372.522 268.788C373.35 269.184 373.89 269.688 374.142 270.3V270.372ZM389.642 265.08V255.792H384.35V282H389.462V280.056C389.786 280.74 390.434 281.316 391.406 281.784C392.378 282.252 393.602 282.504 395.078 282.504C396.338 282.504 397.526 282.252 398.678 281.784C399.83 281.316 400.838 280.632 401.702 279.768C402.566 278.904 403.25 277.86 403.754 276.636C404.258 275.412 404.51 274.044 404.51 272.568C404.51 271.092 404.258 269.724 403.754 268.5C403.25 267.276 402.566 266.232 401.702 265.368C400.838 264.504 399.83 263.82 398.678 263.352C397.526 262.884 396.338 262.632 395.078 262.632C393.71 262.632 392.558 262.884 391.586 263.352C390.614 263.82 389.966 264.396 389.642 265.08ZM389.642 274.764V270.372C389.894 269.76 390.434 269.256 391.262 268.86C392.09 268.464 393.062 268.248 394.142 268.248C395.618 268.248 396.806 268.644 397.742 269.472C398.678 270.3 399.146 271.344 399.146 272.604C399.146 273.864 398.678 274.908 397.742 275.736C396.806 276.564 395.618 276.96 394.142 276.96C393.062 276.96 392.09 276.744 391.262 276.348C390.434 275.952 389.894 275.448 389.642 274.836V274.764Z" fill="white"/>
<path fill-rule="evenodd" clip-rule="evenodd" d="M318.56 258.072C315.853 257.79 313.123 258.343 310.746 259.654C308.37 260.965 306.463 262.97 305.289 265.393C304.115 267.816 303.73 270.538 304.188 273.186C304.646 275.833 305.923 278.276 307.846 280.178C309.768 282.08 312.241 283.348 314.923 283.808C317.606 284.268 320.367 283.897 322.828 282.746C325.288 281.595 327.326 279.721 328.663 277.381C329.999 275.041 330.568 272.35 330.291 269.678C329.986 266.708 328.654 263.933 326.517 261.819C324.38 259.705 321.57 258.381 318.56 258.072ZM318.133 277.88C316.677 278.072 315.196 277.81 313.898 277.13C312.601 276.449 311.552 275.385 310.9 274.086C310.247 272.788 310.024 271.32 310.26 269.89C310.497 268.459 311.182 267.138 312.22 266.111C313.257 265.085 314.595 264.405 316.044 264.167C317.494 263.929 318.982 264.145 320.301 264.784C321.62 265.424 322.702 266.455 323.396 267.733C324.089 269.01 324.36 270.47 324.169 271.907C323.969 273.419 323.269 274.823 322.178 275.903C321.087 276.983 319.665 277.677 318.133 277.88ZM337.34 258.586C336.883 258.587 336.432 258.688 336.02 258.883C335.608 259.078 335.244 259.361 334.957 259.711C334.669 260.062 334.465 260.471 334.358 260.91C334.251 261.348 334.245 261.804 334.339 262.246C334.628 263.675 335.982 264.651 337.456 264.651H346.012L332.697 282.032C332.598 282.16 332.538 282.313 332.523 282.473C332.507 282.633 332.538 282.795 332.61 282.939C332.682 283.083 332.794 283.205 332.932 283.29C333.071 283.375 333.231 283.42 333.394 283.421H354.28C355.753 283.421 357.108 282.445 357.397 281.015C357.491 280.574 357.485 280.118 357.378 279.679C357.271 279.241 357.067 278.832 356.779 278.481C356.492 278.131 356.129 277.848 355.717 277.653C355.305 277.458 354.854 277.356 354.396 277.355H343.972L357.277 259.988C357.376 259.858 357.437 259.704 357.452 259.542C357.468 259.381 357.437 259.218 357.364 259.072C357.291 258.927 357.178 258.804 357.038 258.718C356.899 258.632 356.737 258.586 356.572 258.586H337.34ZM420.8 258.656C420.108 258.818 419.494 259.208 419.057 259.762C418.621 260.315 418.39 260.999 418.401 261.7V271.799L401.811 258.777C401.681 258.675 401.524 258.611 401.359 258.593C401.194 258.575 401.027 258.604 400.877 258.675C400.728 258.747 400.602 258.858 400.514 258.997C400.426 259.136 400.379 259.297 400.38 259.461V280.312C400.369 281.013 400.6 281.697 401.036 282.251C401.473 282.804 402.087 283.194 402.779 283.356C403.228 283.454 403.693 283.451 404.141 283.347C404.589 283.243 405.007 283.042 405.365 282.758C405.723 282.473 406.012 282.113 406.21 281.704C406.408 281.295 406.511 280.847 406.51 280.393V270.207L423.101 283.229C423.231 283.331 423.387 283.395 423.552 283.413C423.717 283.431 423.884 283.402 424.034 283.331C424.183 283.26 424.309 283.148 424.397 283.009C424.485 282.87 424.531 282.71 424.531 282.546V261.618C424.532 261.164 424.429 260.717 424.231 260.308C424.032 259.899 423.743 259.539 423.385 259.255C423.027 258.97 422.609 258.769 422.162 258.665C421.714 258.562 421.249 258.558 420.8 258.656ZM377.604 264.071C384.621 264.071 389.864 267.728 389.864 271C389.864 274.272 384.621 277.93 377.604 277.93C370.586 277.93 365.343 274.272 365.343 271C365.343 267.728 370.586 264.071 377.604 264.071ZM377.604 258.006C367.447 258.006 359.213 263.824 359.213 271C359.213 278.177 367.447 283.995 377.604 283.995C387.761 283.995 395.994 278.177 395.994 271C395.994 263.824 387.76 258.006 377.604 258.006Z" fill="#0069FF"/>
<path d="M959.802 227.525L953 202.449H957.462L962.688 221.709L968.29 202.448L972.449 202.449L978.07 221.811L983.32 202.454L987.781 202.448L980.976 227.521L975.805 227.516L970.371 208.789L964.932 227.52L959.802 227.525Z" fill="#BE20A5"/>
<path d="M990.859 202.462H995.107V227.509H990.859V202.462Z" fill="#BE20A5"/>
<path d="M1004.19 223.58H1014.53V227.509H1000.03V202.462H1004.19V223.58Z" fill="#BE20A5"/>
<path d="M1027.59 202.491C1031.08 202.491 1033.98 203.705 1036.26 206.102C1038.58 208.5 1039.75 211.476 1039.75 215C1039.75 218.496 1038.58 221.471 1036.26 223.898C1033.98 226.296 1031.08 227.509 1027.59 227.509H1017.6V202.462H1027.59V202.491ZM1027.59 223.609C1029.99 223.609 1031.96 222.8 1033.42 221.182C1034.94 219.565 1035.71 217.485 1035.71 215.029C1035.71 212.516 1034.94 210.494 1033.42 208.876C1031.93 207.258 1029.97 206.449 1027.59 206.449H1021.79V223.609H1027.59Z" fill="#BE20A5"/>
<path d="M1062.16 220.354C1062.16 222.406 1061.43 224.111 1059.93 225.47C1058.44 226.828 1056.68 227.522 1054.51 227.522H1043.64V202.462H1053.72C1055.8 202.462 1057.56 203.156 1058.99 204.457C1060.46 205.786 1061.16 207.434 1061.16 209.399C1061.16 211.596 1060.28 213.272 1058.58 214.515C1060.81 215.672 1062.16 217.753 1062.16 220.354ZM1047.83 206.336V212.926H1053.75C1055.6 212.926 1057 211.48 1057 209.631C1057 207.781 1055.6 206.336 1053.75 206.336H1047.83ZM1054.54 223.649C1056.47 223.649 1058 222.117 1058 220.152C1058 218.186 1056.47 216.654 1054.54 216.654H1047.83V223.678H1054.54V223.649Z" fill="#BE20A5"/>
<path d="M1070.27 223.591H1081.52V227.522H1066.11V202.462H1081.34V206.393H1070.27V212.897H1080.44V216.799H1070.27V223.591Z" fill="#BE20A5"/>
<path d="M1099.74 227.522L1094.35 218.388H1089.43V227.522H1085.27V202.462H1095.43C1097.72 202.462 1099.65 203.243 1101.2 204.832C1102.79 206.364 1103.61 208.272 1103.61 210.527C1103.61 213.706 1101.59 216.625 1098.57 217.781L1104.34 227.522H1099.74ZM1089.43 206.335V214.718H1095.4C1097.63 214.718 1099.39 212.868 1099.39 210.527C1099.39 208.214 1097.6 206.335 1095.4 206.335H1089.43Z" fill="#BE20A5"/>
<path d="M1121.97 227.522L1116.61 218.384H1111.69V227.522H1107.53V202.45H1117.7C1119.98 202.45 1121.91 203.231 1123.47 204.821C1125.05 206.354 1125.87 208.262 1125.87 210.518C1125.87 213.699 1123.85 216.62 1120.83 217.777L1126.6 227.522H1121.97ZM1111.69 206.325V214.711H1117.67C1119.89 214.711 1121.65 212.86 1121.65 210.518C1121.65 208.205 1119.86 206.325 1117.67 206.325H1111.69Z" fill="#BE20A5"/>
<path d="M1129.65 202.452H1133.81V227.522H1129.65V202.452Z" fill="#BE20A5"/>
<path d="M1142.89 223.591H1154.14V227.522H1138.73V202.462H1153.96V206.393H1142.89V212.897H1153.05V216.799H1142.89V223.591Z" fill="#BE20A5"/>
<path d="M1157.04 221.818L1160.64 219.738C1161.67 222.569 1163.75 223.956 1166.94 223.956C1170.1 223.956 1171.66 222.627 1171.66 220.662C1171.66 219.622 1171.22 218.871 1170.4 218.351C1169.58 217.802 1168.05 217.196 1165.89 216.56C1163.45 215.838 1162.25 215.376 1160.55 214.278C1158.91 213.122 1158.09 211.476 1158.09 209.222C1158.09 206.998 1158.88 205.264 1160.5 203.964C1162.08 202.636 1164.01 202 1166.27 202C1170.34 202 1173.47 204.08 1175.11 207.518L1171.6 209.511C1170.54 207.2 1168.76 206.016 1166.27 206.016C1163.83 206.016 1162.28 207.229 1162.28 209.136C1162.28 210.984 1163.51 211.851 1167.41 213.036C1168.38 213.353 1169.08 213.584 1169.52 213.758C1169.99 213.902 1170.6 214.162 1171.39 214.48C1172.21 214.798 1172.86 215.173 1173.24 215.491C1174.59 216.531 1176.02 218.236 1175.84 220.633C1175.84 222.887 1175.02 224.707 1173.35 226.036C1171.71 227.364 1169.55 228 1166.85 228C1161.93 227.971 1158.36 225.66 1157.04 221.818Z" fill="#BE20A5"/>
</svg>
