<svg width="487" height="723" viewBox="0 0 487 723" fill="none" xmlns="http://www.w3.org/2000/svg">
<g style="mix-blend-mode:multiply">
<path d="M524.852 0.286621H136.51V135.651H0V393.925H264.527V307.866H524.852V0.286621Z" fill="#E4F4EB"/>
</g>
<path d="M277.618 267.844H212.977V339.676H277.618V267.844Z" fill="#2BB053"/>
<path style="mix-blend-mode:multiply" d="M387.797 641.906C411.016 665.357 417.963 666.875 433.889 674.838C449.814 682.801 487.917 722.435 487.917 722.435H545.999C545.999 722.435 467.605 673.32 460.157 662.669C452.709 652.017 438.288 645.341 438.288 645.341L387.797 641.906Z" fill="url(#paint0_linear_33_11478)"/>
<path d="M233.905 172.819H37.3047V373.87H233.905V172.819Z" fill="white"/>
<path d="M218.881 261.876H58.377V262.777H218.881V261.876Z" fill="#DEE2EC"/>
<path d="M218.881 295.028H58.377V295.929H218.881V295.028Z" fill="#DEE2EC"/>
<path d="M218.881 328.179H58.377V329.079H218.881V328.179Z" fill="#DEE2EC"/>
<path d="M74.508 328.627H72.707V332.743H74.508V328.627Z" fill="#DEE2EC"/>
<path d="M80.297 328.627H79.3965V332.743H80.297V328.627Z" fill="#DEE2EC"/>
<path d="M86.5372 328.627H85.6367V332.743H86.5372V328.627Z" fill="#DEE2EC"/>
<path d="M92.7755 328.627H91.875V332.743H92.7755V328.627Z" fill="#DEE2EC"/>
<path d="M99.0021 328.627H98.1016V332.743H99.0021V328.627Z" fill="#DEE2EC"/>
<path d="M105.688 328.627H103.887V332.743H105.688V328.627Z" fill="#DEE2EC"/>
<path d="M111.479 328.627H110.578V332.743H111.479V328.627Z" fill="#DEE2EC"/>
<path d="M117.717 328.627H116.816V332.743H117.717V328.627Z" fill="#DEE2EC"/>
<path d="M123.957 328.627H123.057V332.743H123.957V328.627Z" fill="#DEE2EC"/>
<path d="M130.184 328.627H129.283V332.743H130.184V328.627Z" fill="#DEE2EC"/>
<path d="M136.873 328.627H135.072V332.743H136.873V328.627Z" fill="#DEE2EC"/>
<path d="M142.662 328.627H141.762V332.743H142.662V328.627Z" fill="#DEE2EC"/>
<path d="M148.899 328.627H147.998V332.743H148.899V328.627Z" fill="#DEE2EC"/>
<path d="M155.139 328.627H154.238V332.743H155.139V328.627Z" fill="#DEE2EC"/>
<path d="M161.365 328.627H160.465V332.743H161.365V328.627Z" fill="#DEE2EC"/>
<path d="M168.055 328.627H166.254V332.743H168.055V328.627Z" fill="#DEE2EC"/>
<path d="M173.844 328.627H172.943V332.743H173.844V328.627Z" fill="#DEE2EC"/>
<path d="M180.08 328.627H179.18V332.743H180.08V328.627Z" fill="#DEE2EC"/>
<path d="M186.32 328.627H185.42V332.743H186.32V328.627Z" fill="#DEE2EC"/>
<path d="M192.561 328.627H191.66V332.743H192.561V328.627Z" fill="#DEE2EC"/>
<path d="M199.238 328.627H197.438V332.743H199.238V328.627Z" fill="#DEE2EC"/>
<path d="M205.027 328.627H204.127V332.743H205.027V328.627Z" fill="#DEE2EC"/>
<path d="M211.266 328.627H210.365V332.743H211.266V328.627Z" fill="#DEE2EC"/>
<path d="M61.1042 319.765H60.2423C59.2121 319.765 58.377 320.6 58.377 321.63V324.473C58.377 325.504 59.2121 326.339 60.2423 326.339H61.1042C62.1344 326.339 62.9694 325.504 62.9694 324.473V321.63C62.9694 320.6 62.1344 319.765 61.1042 319.765Z" fill="#E4F4EB"/>
<path d="M61.1042 286.396H60.2423C59.2121 286.396 58.377 287.231 58.377 288.261V291.104C58.377 292.134 59.2121 292.969 60.2423 292.969H61.1042C62.1344 292.969 62.9694 292.134 62.9694 291.104V288.261C62.9694 287.231 62.1344 286.396 61.1042 286.396Z" fill="#E4F4EB"/>
<path d="M61.1042 253.065H60.2423C59.2121 253.065 58.377 253.901 58.377 254.931V257.774C58.377 258.804 59.2121 259.639 60.2423 259.639H61.1042C62.1344 259.639 62.9694 258.804 62.9694 257.774V254.931C62.9694 253.901 62.1344 253.065 61.1042 253.065Z" fill="#E4F4EB"/>
<path d="M74.0319 340.668H73.1699C72.1397 340.668 71.3047 341.503 71.3047 342.533V345.376C71.3047 346.406 72.1397 347.241 73.1699 347.241H74.0319C75.062 347.241 75.8971 346.406 75.8971 345.376V342.533C75.8971 341.503 75.062 340.668 74.0319 340.668Z" fill="#E4F4EB"/>
<path d="M105.229 340.668H104.367C103.337 340.668 102.502 341.503 102.502 342.533V345.376C102.502 346.406 103.337 347.241 104.367 347.241H105.229C106.259 347.241 107.094 346.406 107.094 345.376V342.533C107.094 341.503 106.259 340.668 105.229 340.668Z" fill="#E4F4EB"/>
<path d="M136.409 340.668H135.547C134.517 340.668 133.682 341.503 133.682 342.533V345.376C133.682 346.406 134.517 347.241 135.547 347.241H136.409C137.439 347.241 138.274 346.406 138.274 345.376V342.533C138.274 341.503 137.439 340.668 136.409 340.668Z" fill="#E4F4EB"/>
<path d="M128.984 358.047H126.771C125.585 358.047 124.623 359.009 124.623 360.195V362.472C124.623 363.659 125.585 364.62 126.771 364.62H128.984C130.17 364.62 131.132 363.659 131.132 362.472V360.195C131.132 359.009 130.17 358.047 128.984 358.047Z" fill="#E4F4EB"/>
<path d="M180.738 358.047H178.525C177.339 358.047 176.377 359.009 176.377 360.195V362.472C176.377 363.659 177.339 364.62 178.525 364.62H180.738C181.924 364.62 182.886 363.659 182.886 362.472V360.195C182.886 359.009 181.924 358.047 180.738 358.047Z" fill="#E4F4EB"/>
<path d="M167.592 340.668H166.731C165.7 340.668 164.865 341.503 164.865 342.533V345.376C164.865 346.406 165.7 347.241 166.731 347.241H167.592C168.623 347.241 169.458 346.406 169.458 345.376V342.533C169.458 341.503 168.623 340.668 167.592 340.668Z" fill="#E4F4EB"/>
<path d="M198.774 340.668H197.912C196.882 340.668 196.047 341.503 196.047 342.533V345.376C196.047 346.406 196.882 347.241 197.912 347.241H198.774C199.804 347.241 200.639 346.406 200.639 345.376V342.533C200.639 341.503 199.804 340.668 198.774 340.668Z" fill="#E4F4EB"/>
<path d="M99.6962 236.972H60.2423C59.2121 236.972 58.377 237.807 58.377 238.837V241.011C58.377 242.041 59.2121 242.876 60.2423 242.876H99.6962C100.726 242.876 101.561 242.041 101.561 241.011V238.837C101.561 237.807 100.726 236.972 99.6962 236.972Z" fill="#E4F4EB"/>
<path d="M215.254 203.55H179.325C177.321 203.55 175.697 205.174 175.697 207.177V214.922C175.697 216.925 177.321 218.549 179.325 218.549H215.254C217.258 218.549 218.882 216.925 218.882 214.922V207.177C218.882 205.174 217.258 203.55 215.254 203.55Z" fill="#DEE2EC"/>
<path d="M140.128 185.145H60.0879C59.143 185.145 58.377 185.911 58.377 186.855V191.602C58.377 192.547 59.143 193.313 60.0879 193.313H140.128C141.073 193.313 141.839 192.547 141.839 191.602V186.855C141.839 185.911 141.073 185.145 140.128 185.145Z" fill="#E4F4EB"/>
<path d="M217.182 185.145H191.66C190.715 185.145 189.949 185.911 189.949 186.855V191.602C189.949 192.547 190.715 193.313 191.66 193.313H217.182C218.127 193.313 218.893 192.547 218.893 191.602V186.855C218.893 185.911 218.127 185.145 217.182 185.145Z" fill="#DEE2EC"/>
<path d="M152.451 193.312C154.703 193.312 156.529 191.486 156.529 189.234C156.529 186.981 154.703 185.156 152.451 185.156C150.199 185.156 148.373 186.981 148.373 189.234C148.373 191.486 150.199 193.312 152.451 193.312Z" fill="#DEE2EC"/>
<path d="M164.042 358.047H138.288C137.009 358.047 135.973 359.084 135.973 360.362V362.305C135.973 363.584 137.009 364.62 138.288 364.62H164.042C165.321 364.62 166.357 363.584 166.357 362.305V360.362C166.357 359.084 165.321 358.047 164.042 358.047Z" fill="#E4F4EB"/>
<path d="M216.565 358.047H190.812C189.533 358.047 188.496 359.084 188.496 360.362V362.305C188.496 363.584 189.533 364.62 190.812 364.62H216.565C217.844 364.62 218.881 363.584 218.881 362.305V360.362C218.881 359.084 217.844 358.047 216.565 358.047Z" fill="#E4F4EB"/>
<path d="M120.715 328.628V314.182H111.029L102.487 299.658L94.9745 302.411H92.3117L86.0855 282.125L73.6074 310.168V328.628H120.715Z" fill="#1073FF"/>
<path d="M73.6074 328.627L78.8816 323.006L86.0855 305.356L92.3117 320.394L104.79 322.517L117.268 318.606L120.715 323.006V328.627H73.6074Z" fill="#BE20A5"/>
<g style="mix-blend-mode:multiply">
<path d="M233.637 172.675H151.037V289.39H233.637V172.675Z" fill="#E9F4ED"/>
</g>
<path d="M360.538 46.7007H163.938V279.115H360.538V46.7007Z" fill="white"/>
<g opacity="0.7">
<path d="M60.5655 218.992L58.9141 212.904H59.9973L61.2661 217.58L62.626 212.904L63.6358 212.904L65.0004 217.605L66.2749 212.905L67.3581 212.904L65.706 218.991L64.4504 218.99L63.1313 214.443L61.8109 218.991L60.5655 218.992Z" fill="#BE20A5"/>
<path d="M68.1055 212.908H69.1366V218.988H68.1055V212.908Z" fill="#BE20A5"/>
<path d="M71.3399 218.035H73.8503V218.988H70.3301V212.908H71.3399V218.035Z" fill="#BE20A5"/>
<path d="M77.0227 212.915C77.8689 212.915 78.573 213.209 79.1277 213.791C79.6895 214.374 79.974 215.096 79.974 215.952C79.974 216.8 79.6895 217.523 79.1277 218.112C78.573 218.694 77.8689 218.988 77.0227 218.988H74.5977V212.908H77.0227V212.915ZM77.0227 218.042C77.6058 218.042 78.0823 217.845 78.4379 217.452C78.8077 217.06 78.9926 216.555 78.9926 215.959C78.9926 215.348 78.8077 214.857 78.4379 214.465C78.0752 214.072 77.5987 213.876 77.0227 213.876H75.6146V218.042H77.0227Z" fill="#BE20A5"/>
<path d="M85.4144 217.251C85.4144 217.75 85.2367 218.164 84.874 218.493C84.5113 218.823 84.0845 218.992 83.5584 218.992H80.9199V212.908H83.3663C83.8713 212.908 84.2978 213.076 84.6463 213.392C85.002 213.715 85.1727 214.115 85.1727 214.592C85.1727 215.125 84.9592 215.532 84.5469 215.834C85.0872 216.115 85.4144 216.62 85.4144 217.251ZM81.9368 213.848V215.448H83.3733C83.8214 215.448 84.1627 215.097 84.1627 214.648C84.1627 214.199 83.8214 213.848 83.3733 213.848H81.9368ZM83.5653 218.051C84.0347 218.051 84.4046 217.679 84.4046 217.202C84.4046 216.725 84.0347 216.353 83.5653 216.353H81.9368V218.058H83.5653V218.051Z" fill="#BE20A5"/>
<path d="M87.3847 218.037H90.1156V218.992H86.375V212.908H90.073V213.862H87.3847V215.441H89.8525V216.388H87.3847V218.037Z" fill="#BE20A5"/>
<path d="M94.5386 218.992L93.2299 216.774H92.0351V218.992H91.0254V212.908H93.493C94.0478 212.908 94.5171 213.097 94.8941 213.483C95.278 213.855 95.4773 214.318 95.4773 214.865C95.4773 215.637 94.9865 216.346 94.2541 216.627L95.6549 218.992H94.5386ZM92.0351 213.848V215.883H93.486C94.0264 215.883 94.4531 215.434 94.4531 214.865C94.4531 214.304 94.0194 213.848 93.486 213.848H92.0351Z" fill="#BE20A5"/>
<path d="M99.9356 218.992L98.6342 216.773H97.4394V218.992H96.4297V212.905H98.8973C99.4521 212.905 99.9214 213.094 100.298 213.48C100.682 213.853 100.882 214.316 100.882 214.864C100.882 215.636 100.391 216.345 99.6583 216.626L101.059 218.992H99.9356ZM97.4394 213.846V215.882H98.8903C99.4307 215.882 99.8574 215.432 99.8574 214.864C99.8574 214.302 99.4237 213.846 98.8903 213.846H97.4394Z" fill="#BE20A5"/>
<path d="M101.799 212.905H102.809V218.992H101.799V212.905Z" fill="#BE20A5"/>
<path d="M105.014 218.037H107.745V218.992H104.004V212.908H107.702V213.862H105.014V215.441H107.481V216.388H105.014V218.037Z" fill="#BE20A5"/>
<path d="M108.449 217.607L109.324 217.102C109.573 217.789 110.078 218.126 110.853 218.126C111.621 218.126 111.998 217.803 111.998 217.326C111.998 217.074 111.891 216.891 111.692 216.765C111.493 216.632 111.123 216.484 110.597 216.33C110.007 216.155 109.715 216.043 109.302 215.776C108.904 215.496 108.705 215.096 108.705 214.549C108.705 214.009 108.897 213.588 109.288 213.272C109.672 212.95 110.142 212.795 110.689 212.795C111.678 212.795 112.439 213.3 112.837 214.135L111.984 214.619C111.727 214.058 111.294 213.77 110.689 213.77C110.099 213.77 109.722 214.065 109.722 214.528C109.722 214.977 110.021 215.187 110.967 215.475C111.201 215.552 111.372 215.608 111.479 215.65C111.592 215.685 111.742 215.748 111.934 215.825C112.133 215.902 112.289 215.994 112.382 216.071C112.709 216.323 113.057 216.737 113.015 217.319C113.015 217.866 112.816 218.308 112.41 218.631C112.012 218.953 111.486 219.108 110.832 219.108C109.637 219.101 108.769 218.539 108.449 217.607Z" fill="#BE20A5"/>
</g>
<path d="M226.341 110.852H186.887C185.857 110.852 185.021 111.687 185.021 112.717V114.891C185.021 115.921 185.857 116.756 186.887 116.756H226.341C227.371 116.756 228.206 115.921 228.206 114.891V112.717C228.206 111.687 227.371 110.852 226.341 110.852Z" fill="#E4F4EB"/>
<path d="M343.663 110.929H304.209C303.179 110.929 302.344 111.764 302.344 112.794V114.968C302.344 115.999 303.179 116.834 304.209 116.834H343.663C344.693 116.834 345.528 115.999 345.528 114.968V112.794C345.528 111.764 344.693 110.929 343.663 110.929Z" fill="#E4F4EB"/>
<path d="M345.733 219.837H185.229V220.737H345.733V219.837Z" fill="#DEE2EC"/>
<path d="M345.526 233.419H185.021V234.32H345.526V233.419Z" fill="#DEE2EC"/>
<path d="M201.155 233.873H199.354V237.989H201.155V233.873Z" fill="#DEE2EC"/>
<path d="M206.943 233.873H206.043V237.989H206.943V233.873Z" fill="#DEE2EC"/>
<path d="M213.168 233.873H212.268V237.989H213.168V233.873Z" fill="#DEE2EC"/>
<path d="M219.406 233.873H218.506V237.989H219.406V233.873Z" fill="#DEE2EC"/>
<path d="M225.647 233.873H224.746V237.989H225.647V233.873Z" fill="#DEE2EC"/>
<path d="M232.34 233.873H230.539V237.989H232.34V233.873Z" fill="#DEE2EC"/>
<path d="M238.127 233.873H237.227V237.989H238.127V233.873Z" fill="#DEE2EC"/>
<path d="M244.354 233.873H243.453V237.989H244.354V233.873Z" fill="#DEE2EC"/>
<path d="M250.592 233.873H249.691V237.989H250.592V233.873Z" fill="#DEE2EC"/>
<path d="M256.83 233.873H255.93V237.989H256.83V233.873Z" fill="#DEE2EC"/>
<path d="M263.52 233.873H261.719V237.989H263.52V233.873Z" fill="#DEE2EC"/>
<path d="M269.307 233.873H268.406V237.989H269.307V233.873Z" fill="#DEE2EC"/>
<path d="M275.533 233.873H274.633V237.989H275.533V233.873Z" fill="#DEE2EC"/>
<path d="M281.772 233.873H280.871V237.989H281.772V233.873Z" fill="#DEE2EC"/>
<path d="M288.01 233.873H287.109V237.989H288.01V233.873Z" fill="#DEE2EC"/>
<path d="M294.699 233.873H292.898V237.989H294.699V233.873Z" fill="#DEE2EC"/>
<path d="M300.49 233.873H299.59V237.989H300.49V233.873Z" fill="#DEE2EC"/>
<path d="M306.729 233.873H305.828V237.989H306.729V233.873Z" fill="#DEE2EC"/>
<path d="M312.955 233.873H312.055V237.989H312.955V233.873Z" fill="#DEE2EC"/>
<path d="M319.193 233.873H318.293V237.989H319.193V233.873Z" fill="#DEE2EC"/>
<path d="M325.883 233.873H324.082V237.989H325.883V233.873Z" fill="#DEE2EC"/>
<path d="M331.674 233.873H330.773V237.989H331.674V233.873Z" fill="#DEE2EC"/>
<path d="M337.912 233.873H337.012V237.989H337.912V233.873Z" fill="#DEE2EC"/>
<path d="M187.749 225.007H186.887C185.857 225.007 185.021 225.842 185.021 226.873V229.716C185.021 230.746 185.857 231.581 186.887 231.581H187.749C188.779 231.581 189.614 230.746 189.614 229.716V226.873C189.614 225.842 188.779 225.007 187.749 225.007Z" fill="#E4F4EB"/>
<path d="M187.749 168.638H186.887C185.857 168.638 185.021 169.473 185.021 170.503V173.346C185.021 174.377 185.857 175.212 186.887 175.212H187.749C188.779 175.212 189.614 174.377 189.614 173.346V170.503C189.614 169.473 188.779 168.638 187.749 168.638Z" fill="#E4F4EB"/>
<path d="M289.979 110.929H289.22C288.317 110.929 287.586 111.661 287.586 112.563V115.059C287.586 115.961 288.317 116.692 289.22 116.692H289.979C290.881 116.692 291.612 115.961 291.612 115.059V112.563C291.612 111.661 290.881 110.929 289.979 110.929Z" fill="#E4F4EB"/>
<path d="M343.663 123.447H304.209C303.179 123.447 302.344 124.282 302.344 125.313V127.487C302.344 128.517 303.179 129.352 304.209 129.352H343.663C344.693 129.352 345.528 128.517 345.528 127.487V125.313C345.528 124.282 344.693 123.447 343.663 123.447Z" fill="#E4F4EB"/>
<path d="M289.979 123.448H289.22C288.317 123.448 287.586 124.179 287.586 125.081V127.577C287.586 128.479 288.317 129.211 289.22 129.211H289.979C290.881 129.211 291.612 128.479 291.612 127.577V125.081C291.612 124.179 290.881 123.448 289.979 123.448Z" fill="#E4F4EB"/>
<path d="M200.676 245.914H199.815C198.784 245.914 197.949 246.749 197.949 247.779V250.622C197.949 251.652 198.784 252.487 199.815 252.487H200.676C201.707 252.487 202.542 251.652 202.542 250.622V247.779C202.542 246.749 201.707 245.914 200.676 245.914Z" fill="#E4F4EB"/>
<path d="M231.862 245.914H231C229.97 245.914 229.135 246.749 229.135 247.779V250.622C229.135 251.652 229.97 252.487 231 252.487H231.862C232.892 252.487 233.727 251.652 233.727 250.622V247.779C233.727 246.749 232.892 245.914 231.862 245.914Z" fill="#E4F4EB"/>
<path d="M263.044 245.914H262.182C261.152 245.914 260.316 246.749 260.316 247.779V250.622C260.316 251.652 261.152 252.487 262.182 252.487H263.044C264.074 252.487 264.909 251.652 264.909 250.622V247.779C264.909 246.749 264.074 245.914 263.044 245.914Z" fill="#E4F4EB"/>
<path d="M255.634 263.279H253.422C252.235 263.279 251.273 264.241 251.273 265.427V267.704C251.273 268.89 252.235 269.852 253.422 269.852H255.634C256.821 269.852 257.783 268.89 257.783 267.704V265.427C257.783 264.241 256.821 263.279 255.634 263.279Z" fill="#E4F4EB"/>
<path d="M307.373 263.279H305.16C303.974 263.279 303.012 264.241 303.012 265.427V267.704C303.012 268.89 303.974 269.852 305.16 269.852H307.373C308.559 269.852 309.521 268.89 309.521 267.704V265.427C309.521 264.241 308.559 263.279 307.373 263.279Z" fill="#E4F4EB"/>
<path d="M294.227 245.914H293.365C292.335 245.914 291.5 246.749 291.5 247.779V250.622C291.5 251.652 292.335 252.487 293.365 252.487H294.227C295.257 252.487 296.092 251.652 296.092 250.622V247.779C296.092 246.749 295.257 245.914 294.227 245.914Z" fill="#E4F4EB"/>
<path d="M325.407 245.914H324.545C323.515 245.914 322.68 246.749 322.68 247.779V250.622C322.68 251.652 323.515 252.487 324.545 252.487H325.407C326.437 252.487 327.272 251.652 327.272 250.622V247.779C327.272 246.749 326.437 245.914 325.407 245.914Z" fill="#E4F4EB"/>
<path d="M226.341 123.448H186.887C185.857 123.448 185.021 124.283 185.021 125.313V127.487C185.021 128.517 185.857 129.352 186.887 129.352H226.341C227.371 129.352 228.206 128.517 228.206 127.487V125.313C228.206 124.283 227.371 123.448 226.341 123.448Z" fill="#E4F4EB"/>
<g opacity="0.6">
<path fill-rule="evenodd" clip-rule="evenodd" d="M189.155 84.4632C188.607 84.4063 188.055 84.5181 187.574 84.7834C187.093 85.0486 186.707 85.4542 186.47 85.9444C186.232 86.4346 186.154 86.9854 186.247 87.521C186.34 88.0567 186.598 88.5508 186.987 88.9356C187.376 89.3205 187.876 89.577 188.419 89.67C188.962 89.763 189.52 89.688 190.018 89.4551C190.516 89.2223 190.928 88.8431 191.199 88.3697C191.469 87.8963 191.584 87.3519 191.528 86.8114C191.466 86.2105 191.197 85.649 190.764 85.2213C190.332 84.7936 189.764 84.5259 189.155 84.4632ZM189.068 88.4706C188.774 88.5096 188.474 88.4566 188.212 88.3189C187.949 88.1813 187.737 87.9659 187.605 87.7032C187.473 87.4405 187.428 87.1435 187.476 86.8541C187.523 86.5647 187.662 86.2974 187.872 86.0898C188.082 85.8821 188.352 85.7445 188.646 85.6963C188.939 85.6482 189.24 85.6919 189.507 85.8213C189.774 85.9507 189.993 86.1593 190.133 86.4178C190.273 86.6763 190.328 86.9716 190.289 87.2624C190.249 87.5682 190.107 87.8523 189.887 88.0707C189.666 88.2892 189.378 88.4297 189.068 88.4706ZM192.954 84.5673C192.862 84.5675 192.77 84.588 192.687 84.6274C192.604 84.6668 192.53 84.724 192.472 84.795C192.414 84.8659 192.372 84.9487 192.351 85.0374C192.329 85.1261 192.328 85.2184 192.347 85.3077C192.405 85.5968 192.679 85.7944 192.978 85.7944H194.709L192.015 89.3107C191.995 89.3366 191.983 89.3675 191.979 89.3999C191.976 89.4324 191.982 89.465 191.997 89.4942C192.012 89.5234 192.034 89.5479 192.062 89.5652C192.09 89.5824 192.123 89.5916 192.156 89.5917H196.381C196.679 89.5917 196.953 89.3942 197.012 89.105C197.031 89.0158 197.03 88.9234 197.008 88.8348C196.986 88.7461 196.945 88.6633 196.887 88.5923C196.829 88.5214 196.755 88.4642 196.672 88.4247C196.589 88.3853 196.497 88.3647 196.405 88.3645H194.296L196.987 84.8509C197.008 84.8247 197.02 84.7935 197.023 84.7608C197.026 84.728 197.02 84.6951 197.005 84.6656C196.99 84.6362 196.968 84.6114 196.939 84.594C196.911 84.5766 196.878 84.5674 196.845 84.5673H192.954ZM209.839 84.5814C209.699 84.6142 209.575 84.6931 209.487 84.8051C209.398 84.9171 209.351 85.0554 209.354 85.1973V87.2404L205.997 84.6058C205.971 84.5852 205.939 84.5724 205.906 84.5687C205.872 84.5651 205.839 84.5708 205.808 84.5853C205.778 84.5998 205.753 84.6223 205.735 84.6505C205.717 84.6786 205.708 84.7111 205.708 84.7442V88.9628C205.706 89.1046 205.752 89.243 205.841 89.3549C205.929 89.4669 206.053 89.5458 206.193 89.5786C206.284 89.5984 206.378 89.5977 206.469 89.5767C206.559 89.5558 206.644 89.515 206.716 89.4575C206.789 89.3999 206.847 89.3271 206.887 89.2443C206.927 89.1615 206.948 89.0709 206.948 88.9792V86.9184L210.305 89.553C210.331 89.5736 210.363 89.5864 210.396 89.59C210.429 89.5937 210.463 89.5879 210.493 89.5735C210.524 89.559 210.549 89.5365 210.567 89.5084C210.585 89.4803 210.594 89.4478 210.594 89.4147V85.1807C210.594 85.0889 210.573 84.9984 210.533 84.9156C210.493 84.8329 210.435 84.76 210.362 84.7025C210.29 84.645 210.205 84.6043 210.115 84.5833C210.024 84.5624 209.93 84.5617 209.839 84.5814ZM201.1 85.6769C202.52 85.6769 203.58 86.4169 203.58 87.0789C203.58 87.7408 202.52 88.4808 201.1 88.4808C199.68 88.4808 198.619 87.7408 198.619 87.0789C198.619 86.4169 199.68 85.6769 201.1 85.6769ZM201.1 84.4498C199.045 84.4498 197.379 85.6269 197.379 87.0789C197.379 88.5308 199.045 89.7079 201.1 89.7079C203.155 89.7079 204.821 88.5308 204.821 87.0789C204.821 85.6269 203.155 84.4498 201.1 84.4498Z" fill="#0069FF"/>
</g>
<path d="M341.901 77.4443H305.971C303.968 77.4443 302.344 79.0685 302.344 81.072V88.8161C302.344 90.8196 303.968 92.4438 305.971 92.4438H341.901C343.904 92.4438 345.528 90.8196 345.528 88.8161V81.072C345.528 79.0685 343.904 77.4443 341.901 77.4443Z" fill="#E4F4EB"/>
<path d="M266.772 59.0352H186.732C185.788 59.0352 185.021 59.8012 185.021 60.7461V65.4929C185.021 66.4378 185.788 67.2038 186.732 67.2038H266.772C267.717 67.2038 268.483 66.4378 268.483 65.4929V60.7461C268.483 59.8012 267.717 59.0352 266.772 59.0352Z" fill="#E4F4EB"/>
<path d="M343.815 59.0352H318.293C317.348 59.0352 316.582 59.8012 316.582 60.7461V65.4929C316.582 66.4378 317.348 67.2038 318.293 67.2038H343.815C344.76 67.2038 345.526 66.4378 345.526 65.4929V60.7461C345.526 59.8012 344.76 59.0352 343.815 59.0352Z" fill="#E4F4EB"/>
<path d="M279.097 67.1909C281.35 67.1909 283.175 65.3652 283.175 63.113C283.175 60.8609 281.35 59.0352 279.097 59.0352C276.845 59.0352 275.02 60.8609 275.02 63.113C275.02 65.3652 276.845 67.1909 279.097 67.1909Z" fill="#E4F4EB"/>
<path d="M290.686 263.279H264.933C263.654 263.279 262.617 264.315 262.617 265.594V267.537C262.617 268.816 263.654 269.852 264.933 269.852H290.686C291.965 269.852 293.002 268.816 293.002 267.537V265.594C293.002 264.315 291.965 263.279 290.686 263.279Z" fill="#E4F4EB"/>
<path d="M343.198 263.279H317.444C316.166 263.279 315.129 264.315 315.129 265.594V267.537C315.129 268.816 316.166 269.852 317.444 269.852H343.198C344.477 269.852 345.514 268.816 345.514 267.537V265.594C345.514 264.315 344.477 263.279 343.198 263.279Z" fill="#E4F4EB"/>
<path d="M345.733 205.416H185.229V206.316H345.733V205.416Z" fill="#DEE2EC"/>
<path d="M345.733 190.995H185.229V191.895H345.733V190.995Z" fill="#DEE2EC"/>
<path d="M345.733 176.577H185.229V177.477H345.733V176.577Z" fill="#DEE2EC"/>
<path d="M345.733 162.141H185.229V163.042H345.733V162.141Z" fill="#DEE2EC"/>
<path d="M345.733 147.719H185.229V148.62H345.733V147.719Z" fill="#DEE2EC"/>
<path d="M216.72 221.188H200.254C200.015 221.188 199.786 221.093 199.617 220.925C199.448 220.756 199.354 220.527 199.354 220.288C199.354 220.049 199.448 219.82 199.617 219.651C199.786 219.482 200.015 219.387 200.254 219.387H216L222.033 191.254C222.077 191.054 222.187 190.875 222.346 190.747C222.505 190.618 222.703 190.547 222.908 190.546H234.794L244.854 162.245C244.917 162.071 245.033 161.921 245.185 161.815C245.336 161.71 245.517 161.653 245.703 161.654H254.875L259.197 147.863C259.258 147.677 259.377 147.515 259.536 147.402C259.696 147.288 259.889 147.229 260.085 147.233C260.281 147.238 260.47 147.308 260.624 147.431C260.777 147.554 260.886 147.724 260.934 147.915L269.295 181.22L272.807 172.086C272.84 171.965 272.898 171.852 272.978 171.754C273.057 171.656 273.157 171.577 273.269 171.52C273.381 171.463 273.504 171.43 273.63 171.424C273.756 171.417 273.882 171.437 273.999 171.483C274.117 171.528 274.223 171.597 274.312 171.686C274.402 171.775 274.471 171.882 274.516 171.999C274.561 172.117 274.581 172.243 274.575 172.368C274.569 172.494 274.536 172.617 274.479 172.73L269.951 184.513C269.887 184.693 269.765 184.848 269.605 184.952C269.445 185.057 269.255 185.106 269.064 185.092C268.874 185.078 268.693 185.005 268.548 184.883C268.402 184.76 268.299 184.595 268.253 184.41L259.982 151.44L256.418 162.824C256.361 163.008 256.246 163.168 256.091 163.281C255.936 163.394 255.748 163.455 255.556 163.455H246.346L236.286 191.755C236.223 191.929 236.107 192.08 235.955 192.185C235.803 192.291 235.622 192.348 235.437 192.347H223.641L217.608 220.481C217.563 220.683 217.451 220.863 217.289 220.992C217.128 221.121 216.927 221.19 216.72 221.188Z" fill="#1073FF"/>
<path d="M233.725 209.764H220.321C220.17 209.765 220.021 209.727 219.889 209.655C219.756 209.584 219.644 209.479 219.562 209.353L205.025 186.583L201.089 197.106C201.051 197.222 200.991 197.329 200.911 197.42C200.831 197.512 200.733 197.586 200.624 197.639C200.514 197.692 200.395 197.722 200.274 197.728C200.152 197.733 200.031 197.714 199.917 197.672C199.803 197.629 199.699 197.564 199.611 197.48C199.523 197.396 199.453 197.295 199.405 197.183C199.357 197.072 199.332 196.951 199.332 196.83C199.332 196.708 199.356 196.588 199.404 196.476L203.971 184.332C204.03 184.177 204.132 184.042 204.263 183.941C204.395 183.84 204.552 183.778 204.717 183.76C204.882 183.743 205.049 183.772 205.198 183.843C205.348 183.914 205.475 184.026 205.566 184.165L220.797 208.028H233.082L241.636 184.242C241.7 184.068 241.815 183.918 241.967 183.812C242.119 183.706 242.3 183.65 242.485 183.65H254.963C255.166 183.651 255.363 183.72 255.522 183.846C255.68 183.972 255.792 184.148 255.838 184.345L258.411 195.781H275.006C275.244 195.781 275.473 195.876 275.642 196.045C275.811 196.214 275.906 196.443 275.906 196.682C275.906 196.92 275.811 197.15 275.642 197.318C275.473 197.487 275.244 197.582 275.006 197.582H257.703C257.501 197.582 257.304 197.513 257.145 197.387C256.987 197.261 256.875 197.085 256.829 196.887L254.256 185.451H243.116L234.574 209.134C234.517 209.315 234.404 209.474 234.252 209.587C234.099 209.7 233.915 209.762 233.725 209.764Z" fill="#BE20A5"/>
<path d="M195.223 34.0802C200.459 34.0802 204.704 29.8355 204.704 24.5994C204.704 19.3633 200.459 15.1187 195.223 15.1187C189.987 15.1187 185.742 19.3633 185.742 24.5994C185.742 29.8355 189.987 34.0802 195.223 34.0802Z" fill="#4AC480"/>
<path d="M135.971 454.772C148.71 454.772 159.037 444.445 159.037 431.707C159.037 418.968 148.71 408.642 135.971 408.642C123.233 408.642 112.906 418.968 112.906 431.707C112.906 444.445 123.233 454.772 135.971 454.772Z" fill="#4AC480"/>
<path d="M449.621 299.465C456.748 328.293 456.683 319.752 458.15 333.786C459.089 342.791 457.211 354.96 457.211 354.96L461.07 383.66L465.637 390.517L472.982 335.69L474.937 297.548L449.621 299.465Z" fill="#FFBAA5"/>
<path d="M437.186 200.607C430.947 227.621 427.473 251.252 441.354 256.809C455.234 262.367 465.564 204.826 464.277 200.607C462.991 196.387 455.272 187.421 455.272 187.421L437.186 200.607Z" fill="#0F55AB"/>
<path d="M328.972 629.557C320.945 635.243 279.973 627.126 278.481 641.816C277.066 655.787 351.664 665.551 354.044 661.833C356.424 658.115 355.549 627.962 355.549 627.962L328.972 629.557Z" fill="#003F1B"/>
<path d="M474.89 297.562L463.969 298.386L453.484 302.94C468.754 309.179 467.365 328.668 468.059 339.705C468.754 350.742 462.515 366.719 462.515 366.719L457.228 354.91L461.087 383.61L465.654 390.466L472.999 335.64L474.89 297.562Z" fill="#ED9F8C"/>
<path d="M313.676 635.614C326.861 649.494 355.046 657.483 355.046 657.483C355.046 657.483 358.082 644.619 355.998 639.1C353.914 633.581 313.676 635.614 313.676 635.614Z" fill="#002100"/>
<path d="M416.177 634.957C370.342 623.65 387.348 648.838 402.991 653.456C413.668 656.62 443.603 661.367 445.699 656.247C447.796 651.127 439.936 634.25 439.936 634.25L416.177 634.957Z" fill="#003F1B"/>
<path d="M416.074 641.906C416.074 650.911 434.624 652.738 436.554 658.514C436.554 658.514 445.211 658.514 445.906 655.786C446.6 653.059 445.211 646.782 445.211 646.782L416.074 641.906Z" fill="#002100"/>
<path d="M400.789 235.519C400.789 235.519 408.096 227.491 409.652 224.726C411.711 221.059 413.846 210.099 413.846 210.099L441.336 205.468C441.336 205.468 437.374 222.577 437.992 226.411C438.609 230.244 441.092 241.719 441.092 241.719L400.789 235.519Z" fill="#E9A28D"/>
<path d="M461.005 383.633L465.572 390.49L459.127 407.728L455.486 446.5L443.497 518.538C443.497 518.538 457.442 586.872 449.595 644.605C448.308 654.331 410.308 644.605 410.308 644.605L401.188 518.024V427.873L377.621 522.565L361.554 645.686C361.554 645.686 305.454 645.043 307.525 631.201C316.967 566.881 322.627 507.977 349.436 400.562C349.436 400.562 353.899 381.524 354.658 375.465L356.215 371.014L461.005 383.633Z" fill="#1D6C3F"/>
<path d="M443.459 518.527L455.448 446.488L459.128 407.729L465.56 390.53L461.006 383.635L429.502 379.775L424.472 380.303L382.754 394.016C382.754 394.016 435.676 407.484 435.381 418.998C435.085 430.511 424.022 465.308 423.057 497.069C422.092 528.831 439.471 537.501 444.926 586.153C445.865 548.744 443.459 518.527 443.459 518.527Z" fill="#E89003"/>
<path d="M460.993 383.713H460.723L457.288 383.16L396.235 375.776C393.302 375.583 390.472 375.776 387.887 375.377C345.551 369.55 386.999 382.62 382.741 429.072C381.223 445.718 363.625 489.16 363.625 516.907C363.625 525.256 366.957 604.1 366.957 604.1L377.505 522.568L387.166 483.975L388.53 478.483L401.098 428.236V428.004V518.142L410.218 644.724C410.218 644.724 448.18 654.449 449.505 644.724C457.352 586.965 446.058 502.744 446.058 502.744L455.41 446.631L459.05 407.859L465.559 390.531L460.993 383.713Z" fill="#135D39"/>
<path d="M354.452 269.542C349.59 286.497 345.743 282.483 345.743 282.483C345.743 282.483 320.298 253.99 316.954 239.916C313.609 225.843 316.117 223.193 311.1 219.09C306.083 214.986 301.324 209.545 296.088 207.846C290.853 206.148 288.627 214.394 293.785 223.592C298.944 232.79 298.725 244.393 302.996 246.914C309.505 250.774 308.489 252.06 310.83 259.624C317.674 281.917 333.137 308.25 337.433 313.55C341.292 318.245 340.919 322.709 349.294 321.178C357.668 319.648 374.494 286.356 374.494 286.356L354.452 269.542Z" fill="#FFBAA5"/>
<path d="M358.699 277.507C358.699 277.507 352.55 296.391 340.599 291.387C328.648 286.383 313.031 249.553 308.773 252.422C309.43 254.068 309.815 256.191 310.845 259.561C317.688 281.855 333.151 308.187 337.447 313.487C341.306 318.183 340.933 322.646 349.308 321.116C357.682 319.585 374.508 286.293 374.508 286.293L358.699 277.507Z" fill="#ED9F8C"/>
<path d="M391.361 226.409C367.177 233.844 350.569 266.557 355.226 273.208C359.883 279.859 367.318 286.072 374.522 286.355C374.522 286.355 372.348 294.948 369.518 306.32C367.665 313.742 365.543 322.348 363.562 330.517C360.513 343.034 350.582 376.943 350.582 385.832C350.582 394.721 383.36 395.57 401.614 396.96C419.868 398.349 461.946 396.149 461.02 383.71C460.093 371.27 449.622 307.812 451.024 305.008C452.426 302.203 480.29 308.159 478.605 301.843C476.251 292.967 480.148 262.711 475.659 252.458C468.828 236.854 467.117 245.898 438.855 238.642L391.361 226.409Z" fill="#4AC480"/>
<path d="M477.949 276.052C451.449 273.633 403.814 268.153 358.443 257.039C354.776 264.32 353.451 270.662 355.227 273.196C356.616 275.175 358.179 277.026 359.896 278.727C390.924 286.24 447.745 298.242 477.808 293.675C477.692 288.62 477.885 282.329 477.949 276.052Z" fill="white"/>
<path d="M369.518 306.323C367.769 313.372 365.762 321.476 363.871 329.259C392.301 336.502 433.697 340.837 455.463 342.831C454.459 335.91 453.495 329.079 452.697 323.161C429.387 319.302 395.131 310.516 370.174 303.698L369.518 306.323Z" fill="white"/>
<path d="M361.245 339.458C359.663 345.517 357.939 351.152 357.09 355.063C384.683 362.356 435.174 373.728 459.089 368.107C458.523 364.08 457.879 359.616 457.21 354.972C427.327 355.86 386.445 346.328 361.245 339.458Z" fill="white"/>
<g style="mix-blend-mode:multiply">
<path d="M412.355 231.838C401.575 309.923 455.771 296.429 467.568 292.955C479.364 289.482 477.679 265.516 477.55 261.516C477.421 257.515 475.222 245.847 469.034 243.365C462.847 240.882 412.355 231.838 412.355 231.838Z" fill="#DEE2EC"/>
</g>
<g style="mix-blend-mode:multiply">
<path d="M380.117 331.085C362.866 352.722 374.521 384.188 382.689 395.585C382.689 395.585 424.112 400.641 448.618 393.373C456.169 391.134 461.34 388.098 461.006 383.673C460.079 371.234 449.608 307.776 451.01 304.971C439.741 296.327 396.39 310.657 380.117 331.085Z" fill="#DEE2EC"/>
</g>
<path d="M408.382 166.876C399.468 186.172 399.841 206.291 410.955 212.209C422.07 218.126 441.829 208.928 447.746 195.781C453.664 182.634 445.778 167.481 439.205 162.335C432.631 157.189 412.319 158.334 408.382 166.876Z" fill="#FFBAA5"/>
<path d="M431.719 147.656C442.95 149.38 457.743 155.915 461.692 185.361C463.583 199.511 471.302 223.708 475.11 231.015C482.828 245.924 490.083 256.91 482.545 273.724C475.122 290.305 406.647 287.565 412.629 228.314C414.018 214.562 413.697 203.01 416.565 192.024C418.817 183.38 413.195 179.353 411.96 183.38C410.018 189.709 406.081 180.202 402.544 175.185C395.842 165.692 411.831 144.595 431.719 147.656Z" fill="#318053"/>
<path style="mix-blend-mode:multiply" d="M278.469 645.289C305.728 667.737 329.024 677.449 340.602 683.881C357.531 693.233 392.521 722.473 392.521 722.473H442.768C442.768 722.473 383.902 679.507 373.495 669.448C363.088 659.388 347.214 654.886 347.214 654.886L278.469 645.289Z" fill="url(#paint1_linear_33_11478)"/>
<defs>
<linearGradient id="paint0_linear_33_11478" x1="387.797" y1="682.145" x2="545.947" y2="682.145" gradientUnits="userSpaceOnUse">
<stop stop-color="#DEECE3"/>
<stop offset="0.45" stop-color="#E2EEE6"/>
<stop offset="0.91" stop-color="#EFF5F1"/>
<stop offset="1" stop-color="#F2F7F4"/>
</linearGradient>
<linearGradient id="paint1_linear_33_11478" x1="112587" y1="50303.2" x2="133569" y2="50303.2" gradientUnits="userSpaceOnUse">
<stop stop-color="#DEECE3"/>
<stop offset="0.45" stop-color="#E2EEE6"/>
<stop offset="0.91" stop-color="#EFF5F1"/>
<stop offset="1" stop-color="#F2F7F4"/>
</linearGradient>
</defs>
</svg>
