<svg width="9" height="11" viewBox="0 0 9 11" fill="none" xmlns="http://www.w3.org/2000/svg">
<path d="M7.5209 4.93457H1.61003C1.14368 4.93457 0.765625 5.31263 0.765625 5.77898V8.73441C0.765625 9.20076 1.14368 9.57882 1.61003 9.57882H7.5209C7.98725 9.57882 8.36531 9.20076 8.36531 8.73441V5.77898C8.36531 5.31263 7.98725 4.93457 7.5209 4.93457Z" fill="#92DEA0" stroke="#92DEA0" stroke-linecap="round" stroke-linejoin="round"/>
<path d="M2.45508 4.93461V3.24579C2.45508 2.68591 2.67749 2.14896 3.07338 1.75307C3.46928 1.35718 4.00622 1.13477 4.5661 1.13477C5.12598 1.13477 5.66293 1.35718 6.05882 1.75307C6.45471 2.14896 6.67712 2.68591 6.67712 3.24579V4.93461" stroke="#92DEA0" stroke-linecap="round" stroke-linejoin="round"/>
</svg>
