<svg width="133" height="129" viewBox="0 0 133 129" fill="none" xmlns="http://www.w3.org/2000/svg">
<line x1="29.7071" y1="28.3783" x2="51.3757" y2="50.0469" stroke="#219653" stroke-width="2"/>
<line x1="49.9628" y1="50.0473" x2="98.717" y2="1.29307" stroke="#219653" stroke-width="2"/>
<line x1="29.7071" y1="35.1498" x2="51.3757" y2="56.8184" stroke="#219653" stroke-width="2"/>
<line x1="49.9609" y1="56.8188" x2="98.7151" y2="8.06455" stroke="#219653" stroke-width="2"/>
<line x1="29.7071" y1="41.9213" x2="51.3757" y2="63.5899" stroke="#219653" stroke-width="2"/>
<line x1="49.9609" y1="63.5903" x2="98.7151" y2="14.836" stroke="#219653" stroke-width="2"/>
<line x1="29.7071" y1="48.6928" x2="51.3757" y2="70.3613" stroke="#219653" stroke-width="2"/>
<line x1="49.9609" y1="70.3613" x2="98.7151" y2="21.607" stroke="#219653" stroke-width="2"/>
<line x1="29.7071" y1="55.4643" x2="51.3757" y2="77.1328" stroke="#219653" stroke-width="2"/>
<line x1="49.9609" y1="77.1327" x2="98.7151" y2="28.3785" stroke="#219653" stroke-width="2"/>
<line x1="29.7071" y1="62.0868" x2="51.3757" y2="83.7554" stroke="#219653" stroke-width="2"/>
<line x1="49.9609" y1="83.7553" x2="98.7151" y2="35.0011" stroke="#219653" stroke-width="2"/>
<path d="M21.734 107.122L18.368 117.356L15.002 107.122H11.5L8.13399 117.356L4.76799 107.122H0.517987L6.39999 123H9.69799L13.234 112.154L16.94 123H20.272L25.984 107.122H21.734ZM43.214 114.908C43.214 109.944 39.644 106.714 35.122 106.714C30.566 106.714 26.792 109.978 26.792 115.044C26.792 120.008 30.396 123.408 35.122 123.408C38.012 123.408 40.834 122.116 42.296 119.804L39.644 117.798C38.726 119.09 37.06 119.838 35.36 119.838C32.98 119.838 31.28 118.648 30.838 116.438H43.146C43.18 115.86 43.214 115.35 43.214 114.908ZM30.838 113.684C31.314 111.27 33.048 110.216 35.156 110.216C37.366 110.216 39.066 111.508 39.304 113.684H30.838ZM53.7718 123.408C56.5258 123.408 58.7698 122.184 60.2318 120.348L57.4438 118.138C56.6278 119.124 55.2678 119.736 53.8398 119.736C51.0858 119.736 49.1138 117.696 49.1138 115.044C49.1138 112.358 51.0858 110.386 53.8398 110.386C55.2678 110.386 56.6278 110.998 57.4438 111.984L60.2318 109.774C58.7698 107.938 56.5258 106.714 53.7718 106.714C49.1818 106.714 45.1358 110.012 45.1358 115.044C45.1358 120.076 49.1818 123.408 53.7718 123.408ZM71.8147 106.714C70.2167 106.714 67.6667 107.598 66.8847 109.536V98.486H62.9407V123H66.8847V114.602C66.8847 111.508 69.1287 110.454 70.9307 110.454C72.6987 110.454 74.2287 111.814 74.2287 114.364V123H78.1727V114.092C78.1727 109.468 75.8947 106.714 71.8147 106.714ZM97.4533 114.908C97.4533 109.944 93.8833 106.714 89.3613 106.714C84.8053 106.714 81.0313 109.978 81.0313 115.044C81.0313 120.008 84.6353 123.408 89.3613 123.408C92.2513 123.408 95.0733 122.116 96.5353 119.804L93.8833 117.798C92.9653 119.09 91.2993 119.838 89.5993 119.838C87.2193 119.838 85.5193 118.648 85.0773 116.438H97.3853C97.4193 115.86 97.4533 115.35 97.4533 114.908ZM85.0773 113.684C85.5533 111.27 87.2873 110.216 89.3953 110.216C91.6053 110.216 93.3053 111.508 93.5433 113.684H85.0773ZM108.011 123.408C110.765 123.408 113.009 122.184 114.471 120.348L111.683 118.138C110.867 119.124 109.507 119.736 108.079 119.736C105.325 119.736 103.353 117.696 103.353 115.044C103.353 112.358 105.325 110.386 108.079 110.386C109.507 110.386 110.867 110.998 111.683 111.984L114.471 109.774C113.009 107.938 110.765 106.714 108.011 106.714C103.421 106.714 99.3751 110.012 99.3751 115.044C99.3751 120.076 103.421 123.408 108.011 123.408ZM132.31 123L124.354 114.058L130.814 107.122H125.68L121.124 112.188V98.486H117.18V123H121.124V115.792L127.312 123H132.31Z" fill="#111111"/>
</svg>
